<?xml version="1.0" encoding="UTF-8" standalone="no"?>
<svg
   fill="none"
   viewBox="0 0 25.372002 20.526428"
   width="25.372002"
   height="28.737"
   alt="TikTok"
   version="1.1"
   id="svg225"
   sodipodi:docname="TikTok.svg"
   xmlns:inkscape="http://www.inkscape.org/namespaces/inkscape"
   xmlns:sodipodi="http://sodipodi.sourceforge.net/DTD/sodipodi-0.dtd"
   xmlns="http://www.w3.org/2000/svg"
   xmlns:svg="http://www.w3.org/2000/svg">
  <defs
     id="defs229" />
  <sodipodi:namedview
     id="namedview227"
     pagecolor="#ffffff"
     bordercolor="#000000"
     borderopacity="0.25"
     inkscape:showpageshadow="2"
     inkscape:pageopacity="0.0"
     inkscape:pagecheckerboard="true"
     inkscape:deskcolor="#d1d1d1"
     showgrid="false" />
  <path
     fill="#25f4ee"
     d="m 9.875,7.5538571 v -1.119 A 8.836,8.836 0 0 0 8.7,6.3518571 C 3.903,6.3458571 0,10.251857 0,15.058857 a 8.706,8.706 0 0 0 3.718,7.135 8.675,8.675 0 0 1 -2.338,-5.932 c 0,-4.737 3.794,-8.5979999 8.495,-8.7069999 z"
     id="path209" />
  <path
     fill="#25f4ee"
     d="m 10.087,20.237857 c 2.14,0 3.89,-1.707 3.966,-3.83 L 14.06,-2.5601429 h 3.462 a 6.78,6.78 0 0 1 -0.109,-1.202 H 12.686 L 12.68,15.205857 a 3.978,3.978 0 0 1 -3.967,3.83 3.93,3.93 0 0 1 -1.846,-0.46 3.949,3.949 0 0 0 3.22,1.662 z M 23.992,3.8778571 v -1.055 a 6.506,6.506 0 0 1 -3.584,-1.067 6.572,6.572 0 0 0 3.584,2.122 z"
     id="path211" />
  <path
     fill="#fe2c55"
     d="m 20.41,1.7558571 a 6.54,6.54 0 0 1 -1.617,-4.316 h -1.265 a 6.557,6.557 0 0 0 2.881,4.316 z M 8.707,11.076857 a 3.98,3.98 0 0 0 -3.974,3.976 c 0,1.528 0.87,2.858 2.134,3.523 a 3.937,3.937 0 0 1 -0.754,-2.321 3.98,3.98 0 0 1 3.973,-3.976 c 0.41,0 0.805,0.07 1.176,0.185 V 7.6308571 a 8.852,8.852 0 0 0 -1.176,-0.083 c -0.07,0 -0.134,0.006 -0.204,0.006 v 3.7079999 a 3.999,3.999 0 0 0 -1.175,-0.185 z"
     id="path213" />
  <path
     fill="#fe2c55"
     d="m 23.992,3.8778571 v 3.676 a 11.25,11.25 0 0 1 -6.579,-2.116 v 9.6209999 c 0,4.802 -3.903,8.714 -8.706,8.714 a 8.669,8.669 0 0 1 -4.99,-1.579 8.69,8.69 0 0 0 6.37,2.781 c 4.796,0 8.706,-3.906 8.706,-8.714 V 6.6398571 a 11.25,11.25 0 0 0 6.579,2.116 v -4.73 c -0.479,0 -0.939,-0.052 -1.38,-0.148 z"
     id="path215" />
  <path
     fill="#ffffff"
     d="M 17.413,15.059857 V 5.4378571 c 1.91695,1.37833 4.218965,2.118614 6.58,2.116 v -3.676 c -1.393138,-0.3000451 -2.651,-1.0447948 -3.584,-2.122 -1.510698,-0.98470955 -2.553583,-2.54379945 -2.887,-4.316 H 14.059 L 14.053,16.407857 c -0.07947,2.134727 -1.830798,3.825572 -3.967,3.83 -1.2781946,-0.0036 -2.4773063,-0.619299 -3.225,-1.656 -1.3091812,-0.688188 -2.1304207,-2.043965 -2.134,-3.523 0.00275,-2.19341 1.7795913,-3.971144 3.973,-3.975 0.409,0 0.805,0.07 1.176,0.185 V 7.5608571 c -4.702,0.103 -8.496,3.9639999 -8.496,8.7009999 0,2.29 0.888,4.373 2.338,5.933 1.4605311,1.028028 3.202945,1.579845 4.989,1.58 4.797,0 8.706,-3.913 8.706,-8.715 z"
     id="path217"
     sodipodi:nodetypes="scccccccccccccsccs" />
</svg>
