<?xml version="1.0" encoding="utf-8"?>
<!-- Generator: Adobe Illustrator 27.0.0, SVG Export Plug-In . SVG Version: 6.00 Build 0)  -->
<svg version="1.1" id="图层_1" xmlns="http://www.w3.org/2000/svg" xmlns:xlink="http://www.w3.org/1999/xlink" x="0px" y="0px"
	 viewBox="0 0 673.5 380.4" enable-background="new 0 0 673.5 380.4" xml:space="preserve">
<pattern  x="-277" y="380.4" width="28" height="28" patternUnits="userSpaceOnUse" id="NCgwUnRhoSxC" viewBox="0 -28 28 28" overflow="visible">
	<g>
		<rect y="-28" fill="none" width="28" height="28"/>
		<path fill="#1565C0" d="M11-10c0-0.6-0.4-1-1-1s-1,0.4-1,1s0.4,1,1,1S11-9.4,11-10"/>
	</g>
</pattern>
<g>
	<defs>
		<rect id="SVGID_1_" x="-277" y="-395.6" width="1278" height="776"/>
	</defs>
	<clipPath id="SVGID_00000041979405215183778410000001578158370949622940_">
		<use xlink:href="#SVGID_1_"  overflow="visible"/>
	</clipPath>
	<g transform="scale(1,1)" clip-path="url(#SVGID_00000041979405215183778410000001578158370949622940_)">
		<g>
			<rect x="-277" y="-395.6" fill="#FFFFFF" width="1278" height="776"/>
			<path fill-rule="evenodd" clip-rule="evenodd" fill="#1565C0" fill-opacity="9.803922e-02" d="M159.3,182.2l60.5,121l242-121
				l-60.5-121L159.3,182.2z"/>
			
				<pattern  id="SVGID_00000064334945316539800930000017017325023845527680_" xlink:href="#NCgwUnRhoSxC" patternTransform="matrix(1 0 0 -1 12 -16123)">
			</pattern>
			<path fill-rule="evenodd" clip-rule="evenodd" fill="url(#SVGID_00000064334945316539800930000017017325023845527680_)" d="
				M249.8,119v135.3h270.6V119H249.8z"/>
			
				<path fill="none" stroke="#616161" stroke-width="2.5" stroke-linecap="round" stroke-linejoin="round" stroke-miterlimit="10" stroke-opacity="0.8" d="
				M641,342.2c0-167.1-135.4-302.5-302.5-302.5S36,175.1,36,342.2"/>
			
				<path fill="none" stroke="#616161" stroke-width="2.5" stroke-linecap="round" stroke-linejoin="round" stroke-miterlimit="10" stroke-opacity="0.8" d="
				M36,342.2h605"/>
			
				<path fill="none" stroke="#1565C0" stroke-width="2.5" stroke-linecap="round" stroke-linejoin="round" stroke-miterlimit="10" stroke-opacity="0.8" d="
				M159.3,182.2l60.5,121"/>
			
				<path fill="none" stroke="#1565C0" stroke-width="2.5" stroke-linecap="round" stroke-linejoin="round" stroke-miterlimit="10" stroke-opacity="0.8" d="
				M219.8,303.2l242-121"/>
			
				<path fill="none" stroke="#1565C0" stroke-width="2.5" stroke-linecap="round" stroke-linejoin="round" stroke-miterlimit="10" stroke-opacity="0.8" d="
				M461.8,182.2l-60.5-121"/>
			
				<path fill="none" stroke="#1565C0" stroke-width="2.5" stroke-linecap="round" stroke-linejoin="round" stroke-miterlimit="10" stroke-opacity="0.8" d="
				M401.3,61.2l-242,121"/>
			
				<path fill="none" stroke="#616161" stroke-width="2.5" stroke-linejoin="round" stroke-miterlimit="10" stroke-opacity="0.8" stroke-dasharray="10.5,8" d="
				M159.3,182.2l99.1,198.2"/>
			
				<path fill="none" stroke="#616161" stroke-width="2.5" stroke-linejoin="round" stroke-miterlimit="10" stroke-opacity="0.8" stroke-dasharray="10.5,8" d="
				M461.8,182.2L-277,551.6"/>
			
				<path fill="none" stroke="#1565C0" stroke-width="2.5" stroke-linejoin="round" stroke-miterlimit="10" stroke-opacity="0.8" stroke-dasharray="6.5,4" d="
				M249.8,119v135.3"/>
			
				<path fill="none" stroke="#1565C0" stroke-width="2.5" stroke-linejoin="round" stroke-miterlimit="10" stroke-opacity="0.8" stroke-dasharray="6.5,4" d="
				M249.8,254.2h270.6"/>
			
				<path fill="none" stroke="#1565C0" stroke-width="2.5" stroke-linejoin="round" stroke-miterlimit="10" stroke-opacity="0.8" stroke-dasharray="6.5,4" d="
				M520.4,254.2V119"/>
			
				<path fill="none" stroke="#1565C0" stroke-width="2.5" stroke-linejoin="round" stroke-miterlimit="10" stroke-opacity="0.8" stroke-dasharray="6.5,4" d="
				M520.4,119H249.8"/>
			<path fill="#1565C0" d="M41,342.2c0,2.8-2.2,5-5,5s-5-2.2-5-5s2.2-5,5-5S41,339.5,41,342.2z"/>
			<path fill="none" stroke="#000000" stroke-linecap="round" stroke-linejoin="round" stroke-miterlimit="10" d="M41,342.2
				c0,2.8-2.2,5-5,5s-5-2.2-5-5s2.2-5,5-5S41,339.5,41,342.2z"/>
			<g enable-background="new    ">
				<path fill="#1565C0" d="M40,332.4l4.4-11.5H46l4.7,11.5H49l-1.3-3.5h-4.8l-1.3,3.5H40z M43.3,327.7h3.9l-1.2-3.2
					c-0.4-1-0.6-1.8-0.8-2.4c-0.1,0.7-0.4,1.5-0.6,2.2L43.3,327.7z"/>
			</g>
			<g enable-background="new    ">
				<path fill="none" stroke="#FFFFFF" stroke-width="3" stroke-linejoin="bevel" stroke-miterlimit="10" d="M40,332.4l4.4-11.5H46
					l4.7,11.5H49l-1.3-3.5h-4.8l-1.3,3.5H40z M43.3,327.7h3.9l-1.2-3.2c-0.4-1-0.6-1.8-0.8-2.4c-0.1,0.7-0.4,1.5-0.6,2.2L43.3,327.7
					z"/>
			</g>
			<g enable-background="new    ">
				<path fill="#1565C0" d="M40,332.4l4.4-11.5H46l4.7,11.5H49l-1.3-3.5h-4.8l-1.3,3.5H40z M43.3,327.7h3.9l-1.2-3.2
					c-0.4-1-0.6-1.8-0.8-2.4c-0.1,0.7-0.4,1.5-0.6,2.2L43.3,327.7z"/>
			</g>
			<path fill="#1565C0" d="M646,342.2c0,2.8-2.2,5-5,5s-5-2.2-5-5s2.2-5,5-5S646,339.5,646,342.2z"/>
			<path fill="none" stroke="#000000" stroke-linecap="round" stroke-linejoin="round" stroke-miterlimit="10" d="M646,342.2
				c0,2.8-2.2,5-5,5s-5-2.2-5-5s2.2-5,5-5S646,339.5,646,342.2z"/>
			<g enable-background="new    ">
				<path fill="#1565C0" d="M646.2,332.4v-11.5h4.3c0.9,0,1.6,0.1,2.1,0.3c0.5,0.2,0.9,0.6,1.2,1.1c0.3,0.5,0.4,1,0.4,1.5
					c0,0.5-0.1,1-0.4,1.4s-0.7,0.8-1.2,1c0.7,0.2,1.2,0.5,1.6,1c0.4,0.5,0.6,1.1,0.6,1.7c0,0.5-0.1,1-0.3,1.5s-0.5,0.8-0.8,1.1
					c-0.3,0.2-0.8,0.4-1.3,0.6c-0.5,0.1-1.1,0.2-1.8,0.2H646.2z M647.7,325.8h2.5c0.7,0,1.2,0,1.4-0.1c0.4-0.1,0.7-0.3,0.9-0.6
					s0.3-0.6,0.3-1c0-0.4-0.1-0.7-0.3-1c-0.2-0.3-0.4-0.5-0.8-0.6c-0.3-0.1-0.9-0.2-1.7-0.2h-2.3V325.8z M647.7,331h2.9
					c0.5,0,0.8,0,1-0.1c0.3-0.1,0.6-0.2,0.9-0.3s0.4-0.4,0.6-0.6c0.2-0.3,0.2-0.6,0.2-1c0-0.4-0.1-0.8-0.3-1.1s-0.5-0.5-0.9-0.7
					c-0.4-0.1-0.9-0.2-1.7-0.2h-2.6V331z"/>
			</g>
			<g enable-background="new    ">
				<path fill="none" stroke="#FFFFFF" stroke-width="3" stroke-linejoin="bevel" stroke-miterlimit="10" d="M646.2,332.4v-11.5h4.3
					c0.9,0,1.6,0.1,2.1,0.3c0.5,0.2,0.9,0.6,1.2,1.1c0.3,0.5,0.4,1,0.4,1.5c0,0.5-0.1,1-0.4,1.4s-0.7,0.8-1.2,1
					c0.7,0.2,1.2,0.5,1.6,1c0.4,0.5,0.6,1.1,0.6,1.7c0,0.5-0.1,1-0.3,1.5s-0.5,0.8-0.8,1.1c-0.3,0.2-0.8,0.4-1.3,0.6
					c-0.5,0.1-1.1,0.2-1.8,0.2H646.2z M647.7,325.8h2.5c0.7,0,1.2,0,1.4-0.1c0.4-0.1,0.7-0.3,0.9-0.6s0.3-0.6,0.3-1
					c0-0.4-0.1-0.7-0.3-1c-0.2-0.3-0.4-0.5-0.8-0.6c-0.3-0.1-0.9-0.2-1.7-0.2h-2.3V325.8z M647.7,331h2.9c0.5,0,0.8,0,1-0.1
					c0.3-0.1,0.6-0.2,0.9-0.3s0.4-0.4,0.6-0.6c0.2-0.3,0.2-0.6,0.2-1c0-0.4-0.1-0.8-0.3-1.1s-0.5-0.5-0.9-0.7
					c-0.4-0.1-0.9-0.2-1.7-0.2h-2.6V331z"/>
			</g>
			<g enable-background="new    ">
				<path fill="#1565C0" d="M646.2,332.4v-11.5h4.3c0.9,0,1.6,0.1,2.1,0.3c0.5,0.2,0.9,0.6,1.2,1.1c0.3,0.5,0.4,1,0.4,1.5
					c0,0.5-0.1,1-0.4,1.4s-0.7,0.8-1.2,1c0.7,0.2,1.2,0.5,1.6,1c0.4,0.5,0.6,1.1,0.6,1.7c0,0.5-0.1,1-0.3,1.5s-0.5,0.8-0.8,1.1
					c-0.3,0.2-0.8,0.4-1.3,0.6c-0.5,0.1-1.1,0.2-1.8,0.2H646.2z M647.7,325.8h2.5c0.7,0,1.2,0,1.4-0.1c0.4-0.1,0.7-0.3,0.9-0.6
					s0.3-0.6,0.3-1c0-0.4-0.1-0.7-0.3-1c-0.2-0.3-0.4-0.5-0.8-0.6c-0.3-0.1-0.9-0.2-1.7-0.2h-2.3V325.8z M647.7,331h2.9
					c0.5,0,0.8,0,1-0.1c0.3-0.1,0.6-0.2,0.9-0.3s0.4-0.4,0.6-0.6c0.2-0.3,0.2-0.6,0.2-1c0-0.4-0.1-0.8-0.3-1.1s-0.5-0.5-0.9-0.7
					c-0.4-0.1-0.9-0.2-1.7-0.2h-2.6V331z"/>
			</g>
			<path fill="#616161" d="M342.5,342.2c0,2.2-1.8,4-4,4c-2.2,0-4-1.8-4-4c0-2.2,1.8-4,4-4C340.7,338.2,342.5,340,342.5,342.2z"/>
			<path fill="none" stroke="#000000" stroke-linecap="round" stroke-linejoin="round" stroke-miterlimit="10" d="M342.5,342.2
				c0,2.2-1.8,4-4,4c-2.2,0-4-1.8-4-4c0-2.2,1.8-4,4-4C340.7,338.2,342.5,340,342.5,342.2z"/>
			<g enable-background="new    ">
				<path fill="#616161" d="M351.4,330.4l1.5,0.4c-0.3,1.2-0.9,2.2-1.7,2.8c-0.8,0.7-1.8,1-3,1c-1.2,0-2.2-0.3-3-0.8
					s-1.4-1.2-1.8-2.2c-0.4-1-0.6-2-0.6-3.1c0-1.2,0.2-2.2,0.7-3.1c0.5-0.9,1.1-1.6,1.9-2c0.8-0.5,1.8-0.7,2.8-0.7
					c1.1,0,2.1,0.3,2.9,0.9s1.3,1.4,1.6,2.5l-1.5,0.4c-0.3-0.8-0.7-1.4-1.2-1.8c-0.5-0.4-1.1-0.6-1.9-0.6c-0.9,0-1.6,0.2-2.2,0.6
					c-0.6,0.4-1,1-1.2,1.7c-0.2,0.7-0.4,1.4-0.4,2.2c0,1,0.1,1.8,0.4,2.6c0.3,0.7,0.7,1.3,1.3,1.6c0.6,0.4,1.2,0.5,1.9,0.5
					c0.8,0,1.6-0.2,2.2-0.7C350.8,332.1,351.2,331.3,351.4,330.4z"/>
			</g>
			<g enable-background="new    ">
				<path fill="none" stroke="#FFFFFF" stroke-width="3" stroke-linejoin="bevel" stroke-miterlimit="10" d="M351.4,330.4l1.5,0.4
					c-0.3,1.2-0.9,2.2-1.7,2.8c-0.8,0.7-1.8,1-3,1c-1.2,0-2.2-0.3-3-0.8s-1.4-1.2-1.8-2.2c-0.4-1-0.6-2-0.6-3.1
					c0-1.2,0.2-2.2,0.7-3.1c0.5-0.9,1.1-1.6,1.9-2c0.8-0.5,1.8-0.7,2.8-0.7c1.1,0,2.1,0.3,2.9,0.9s1.3,1.4,1.6,2.5l-1.5,0.4
					c-0.3-0.8-0.7-1.4-1.2-1.8c-0.5-0.4-1.1-0.6-1.9-0.6c-0.9,0-1.6,0.2-2.2,0.6c-0.6,0.4-1,1-1.2,1.7c-0.2,0.7-0.4,1.4-0.4,2.2
					c0,1,0.1,1.8,0.4,2.6c0.3,0.7,0.7,1.3,1.3,1.6c0.6,0.4,1.2,0.5,1.9,0.5c0.8,0,1.6-0.2,2.2-0.7
					C350.8,332.1,351.2,331.3,351.4,330.4z"/>
			</g>
			<g enable-background="new    ">
				<path fill="#616161" d="M351.4,330.4l1.5,0.4c-0.3,1.2-0.9,2.2-1.7,2.8c-0.8,0.7-1.8,1-3,1c-1.2,0-2.2-0.3-3-0.8
					s-1.4-1.2-1.8-2.2c-0.4-1-0.6-2-0.6-3.1c0-1.2,0.2-2.2,0.7-3.1c0.5-0.9,1.1-1.6,1.9-2c0.8-0.5,1.8-0.7,2.8-0.7
					c1.1,0,2.1,0.3,2.9,0.9s1.3,1.4,1.6,2.5l-1.5,0.4c-0.3-0.8-0.7-1.4-1.2-1.8c-0.5-0.4-1.1-0.6-1.9-0.6c-0.9,0-1.6,0.2-2.2,0.6
					c-0.6,0.4-1,1-1.2,1.7c-0.2,0.7-0.4,1.4-0.4,2.2c0,1,0.1,1.8,0.4,2.6c0.3,0.7,0.7,1.3,1.3,1.6c0.6,0.4,1.2,0.5,1.9,0.5
					c0.8,0,1.6-0.2,2.2-0.7C350.8,332.1,351.2,331.3,351.4,330.4z"/>
			</g>
			<path fill="#1565C0" d="M224.8,303.2c0,2.8-2.2,5-5,5c-2.8,0-5-2.2-5-5s2.2-5,5-5C222.6,298.2,224.8,300.4,224.8,303.2z"/>
			<path fill="none" stroke="#000000" stroke-linecap="round" stroke-linejoin="round" stroke-miterlimit="10" d="M224.8,303.2
				c0,2.8-2.2,5-5,5c-2.8,0-5-2.2-5-5s2.2-5,5-5C222.6,298.2,224.8,300.4,224.8,303.2z"/>
			<g enable-background="new    ">
				<path fill="#1565C0" d="M225.3,293.4v-11.5h8.3v1.4h-6.8v3.5h6.3v1.3h-6.3v3.9h7v1.4H225.3z"/>
			</g>
			<g enable-background="new    ">
				<path fill="none" stroke="#FFFFFF" stroke-width="3" stroke-linejoin="bevel" stroke-miterlimit="10" d="M225.3,293.4v-11.5h8.3
					v1.4h-6.8v3.5h6.3v1.3h-6.3v3.9h7v1.4H225.3z"/>
			</g>
			<g enable-background="new    ">
				<path fill="#1565C0" d="M225.3,293.4v-11.5h8.3v1.4h-6.8v3.5h6.3v1.3h-6.3v3.9h7v1.4H225.3z"/>
			</g>
			<path fill="#1565C0" d="M466.8,182.2c0,2.8-2.2,5-5,5c-2.8,0-5-2.2-5-5s2.2-5,5-5C464.6,177.2,466.8,179.4,466.8,182.2z"/>
			<path fill="none" stroke="#000000" stroke-linecap="round" stroke-linejoin="round" stroke-miterlimit="10" d="M466.8,182.2
				c0,2.8-2.2,5-5,5c-2.8,0-5-2.2-5-5s2.2-5,5-5C464.6,177.2,466.8,179.4,466.8,182.2z"/>
			<g enable-background="new    ">
				<path fill="#1565C0" d="M467.3,172.4v-11.5h7.7v1.4h-6.2v3.5h5.4v1.4h-5.4v5.2H467.3z"/>
			</g>
			<g enable-background="new    ">
				<path fill="none" stroke="#FFFFFF" stroke-width="3" stroke-linejoin="bevel" stroke-miterlimit="10" d="M467.3,172.4v-11.5h7.7
					v1.4h-6.2v3.5h5.4v1.4h-5.4v5.2H467.3z"/>
			</g>
			<g enable-background="new    ">
				<path fill="#1565C0" d="M467.3,172.4v-11.5h7.7v1.4h-6.2v3.5h5.4v1.4h-5.4v5.2H467.3z"/>
			</g>
			<path fill="#1565C0" d="M164.3,182.2c0,2.8-2.2,5-5,5c-2.8,0-5-2.2-5-5s2.2-5,5-5C162.1,177.2,164.3,179.4,164.3,182.2z"/>
			<path fill="none" stroke="#000000" stroke-linecap="round" stroke-linejoin="round" stroke-miterlimit="10" d="M164.3,182.2
				c0,2.8-2.2,5-5,5c-2.8,0-5-2.2-5-5s2.2-5,5-5C162.1,177.2,164.3,179.4,164.3,182.2z"/>
			<g enable-background="new    ">
				<path fill="#1565C0" d="M164.2,172.4v-11.5h3.9c0.9,0,1.6,0.1,2,0.2c0.7,0.2,1.2,0.4,1.7,0.8c0.6,0.5,1.1,1.2,1.4,2
					c0.3,0.8,0.4,1.7,0.4,2.7c0,0.9-0.1,1.6-0.3,2.3s-0.5,1.2-0.8,1.7c-0.3,0.4-0.7,0.8-1,1c-0.4,0.3-0.8,0.4-1.4,0.6
					c-0.5,0.1-1.1,0.2-1.8,0.2H164.2z M165.8,171h2.4c0.8,0,1.3-0.1,1.8-0.2s0.8-0.3,1-0.6c0.4-0.4,0.6-0.8,0.8-1.4
					c0.2-0.6,0.3-1.3,0.3-2.2c0-1.2-0.2-2.1-0.6-2.8c-0.4-0.6-0.9-1.1-1.4-1.3c-0.4-0.2-1.1-0.2-2-0.2h-2.4V171z"/>
			</g>
			<g enable-background="new    ">
				<path fill="none" stroke="#FFFFFF" stroke-width="3" stroke-linejoin="bevel" stroke-miterlimit="10" d="M164.2,172.4v-11.5h3.9
					c0.9,0,1.6,0.1,2,0.2c0.7,0.2,1.2,0.4,1.7,0.8c0.6,0.5,1.1,1.2,1.4,2c0.3,0.8,0.4,1.7,0.4,2.7c0,0.9-0.1,1.6-0.3,2.3
					s-0.5,1.2-0.8,1.7c-0.3,0.4-0.7,0.8-1,1c-0.4,0.3-0.8,0.4-1.4,0.6c-0.5,0.1-1.1,0.2-1.8,0.2H164.2z M165.8,171h2.4
					c0.8,0,1.3-0.1,1.8-0.2s0.8-0.3,1-0.6c0.4-0.4,0.6-0.8,0.8-1.4c0.2-0.6,0.3-1.3,0.3-2.2c0-1.2-0.2-2.1-0.6-2.8
					c-0.4-0.6-0.9-1.1-1.4-1.3c-0.4-0.2-1.1-0.2-2-0.2h-2.4V171z"/>
			</g>
			<g enable-background="new    ">
				<path fill="#1565C0" d="M164.2,172.4v-11.5h3.9c0.9,0,1.6,0.1,2,0.2c0.7,0.2,1.2,0.4,1.7,0.8c0.6,0.5,1.1,1.2,1.4,2
					c0.3,0.8,0.4,1.7,0.4,2.7c0,0.9-0.1,1.6-0.3,2.3s-0.5,1.2-0.8,1.7c-0.3,0.4-0.7,0.8-1,1c-0.4,0.3-0.8,0.4-1.4,0.6
					c-0.5,0.1-1.1,0.2-1.8,0.2H164.2z M165.8,171h2.4c0.8,0,1.3-0.1,1.8-0.2s0.8-0.3,1-0.6c0.4-0.4,0.6-0.8,0.8-1.4
					c0.2-0.6,0.3-1.3,0.3-2.2c0-1.2-0.2-2.1-0.6-2.8c-0.4-0.6-0.9-1.1-1.4-1.3c-0.4-0.2-1.1-0.2-2-0.2h-2.4V171z"/>
			</g>
			<path fill="#1565C0" d="M406.3,61.2c0,2.8-2.2,5-5,5c-2.8,0-5-2.2-5-5c0-2.8,2.2-5,5-5C404.1,56.2,406.3,58.4,406.3,61.2z"/>
			<path fill="none" stroke="#000000" stroke-linecap="round" stroke-linejoin="round" stroke-miterlimit="10" d="M406.3,61.2
				c0,2.8-2.2,5-5,5c-2.8,0-5-2.2-5-5c0-2.8,2.2-5,5-5C404.1,56.2,406.3,58.4,406.3,61.2z"/>
			<g enable-background="new    ">
				<path fill="#1565C0" d="M411.6,46.9v-1.3l4.9,0v4.2c-0.7,0.6-1.5,1-2.3,1.3c-0.8,0.3-1.6,0.4-2.4,0.4c-1.1,0-2.1-0.2-3.1-0.7
					c-0.9-0.5-1.6-1.2-2.1-2.1s-0.7-1.9-0.7-3.1c0-1.1,0.2-2.2,0.7-3.1c0.5-1,1.1-1.7,2-2.2s1.9-0.7,3-0.7c0.8,0,1.6,0.1,2.2,0.4
					c0.7,0.3,1.2,0.6,1.6,1.1c0.4,0.5,0.7,1.1,0.9,1.9l-1.4,0.4c-0.2-0.6-0.4-1-0.6-1.4c-0.3-0.3-0.6-0.6-1.1-0.8
					c-0.5-0.2-1-0.3-1.6-0.3c-0.7,0-1.3,0.1-1.8,0.3c-0.5,0.2-0.9,0.5-1.2,0.8c-0.3,0.3-0.6,0.7-0.7,1.1c-0.3,0.7-0.4,1.5-0.4,2.3
					c0,1,0.2,1.9,0.5,2.6s0.9,1.2,1.5,1.5s1.4,0.5,2.1,0.5c0.7,0,1.3-0.1,1.9-0.4s1.1-0.5,1.4-0.8v-2.1H411.6z"/>
			</g>
			<g enable-background="new    ">
				<path fill="none" stroke="#FFFFFF" stroke-width="3" stroke-linejoin="bevel" stroke-miterlimit="10" d="M411.6,46.9v-1.3l4.9,0
					v4.2c-0.7,0.6-1.5,1-2.3,1.3c-0.8,0.3-1.6,0.4-2.4,0.4c-1.1,0-2.1-0.2-3.1-0.7c-0.9-0.5-1.6-1.2-2.1-2.1s-0.7-1.9-0.7-3.1
					c0-1.1,0.2-2.2,0.7-3.1c0.5-1,1.1-1.7,2-2.2s1.9-0.7,3-0.7c0.8,0,1.6,0.1,2.2,0.4c0.7,0.3,1.2,0.6,1.6,1.1
					c0.4,0.5,0.7,1.1,0.9,1.9l-1.4,0.4c-0.2-0.6-0.4-1-0.6-1.4c-0.3-0.3-0.6-0.6-1.1-0.8c-0.5-0.2-1-0.3-1.6-0.3
					c-0.7,0-1.3,0.1-1.8,0.3c-0.5,0.2-0.9,0.5-1.2,0.8c-0.3,0.3-0.6,0.7-0.7,1.1c-0.3,0.7-0.4,1.5-0.4,2.3c0,1,0.2,1.9,0.5,2.6
					s0.9,1.2,1.5,1.5s1.4,0.5,2.1,0.5c0.7,0,1.3-0.1,1.9-0.4s1.1-0.5,1.4-0.8v-2.1H411.6z"/>
			</g>
			<g enable-background="new    ">
				<path fill="#1565C0" d="M411.6,46.9v-1.3l4.9,0v4.2c-0.7,0.6-1.5,1-2.3,1.3c-0.8,0.3-1.6,0.4-2.4,0.4c-1.1,0-2.1-0.2-3.1-0.7
					c-0.9-0.5-1.6-1.2-2.1-2.1s-0.7-1.9-0.7-3.1c0-1.1,0.2-2.2,0.7-3.1c0.5-1,1.1-1.7,2-2.2s1.9-0.7,3-0.7c0.8,0,1.6,0.1,2.2,0.4
					c0.7,0.3,1.2,0.6,1.6,1.1c0.4,0.5,0.7,1.1,0.9,1.9l-1.4,0.4c-0.2-0.6-0.4-1-0.6-1.4c-0.3-0.3-0.6-0.6-1.1-0.8
					c-0.5-0.2-1-0.3-1.6-0.3c-0.7,0-1.3,0.1-1.8,0.3c-0.5,0.2-0.9,0.5-1.2,0.8c-0.3,0.3-0.6,0.7-0.7,1.1c-0.3,0.7-0.4,1.5-0.4,2.3
					c0,1,0.2,1.9,0.5,2.6s0.9,1.2,1.5,1.5s1.4,0.5,2.1,0.5c0.7,0,1.3-0.1,1.9-0.4s1.1-0.5,1.4-0.8v-2.1H411.6z"/>
			</g>
			<path fill="#616161" d="M243.3,342.2c0,2.2-1.8,4-4,4c-2.2,0-4-1.8-4-4c0-2.2,1.8-4,4-4C241.5,338.2,243.3,340,243.3,342.2z"/>
			<path fill="none" stroke="#000000" stroke-linecap="round" stroke-linejoin="round" stroke-miterlimit="10" d="M243.3,342.2
				c0,2.2-1.8,4-4,4c-2.2,0-4-1.8-4-4c0-2.2,1.8-4,4-4C241.5,338.2,243.3,340,243.3,342.2z"/>
			<g enable-background="new    ">
				<path fill="#616161" d="M244.3,334.4v-11.5h1.5v4.7h6v-4.7h1.5v11.5h-1.5V329h-6v5.4H244.3z"/>
			</g>
			<g enable-background="new    ">
				<path fill="none" stroke="#FFFFFF" stroke-width="3" stroke-linejoin="bevel" stroke-miterlimit="10" d="M244.3,334.4v-11.5h1.5
					v4.7h6v-4.7h1.5v11.5h-1.5V329h-6v5.4H244.3z"/>
			</g>
			<g enable-background="new    ">
				<path fill="#616161" d="M244.3,334.4v-11.5h1.5v4.7h6v-4.7h1.5v11.5h-1.5V329h-6v5.4H244.3z"/>
			</g>
			<path fill="#616161" d="M145.8,342.2c0,2.2-1.8,4-4,4s-4-1.8-4-4c0-2.2,1.8-4,4-4S145.8,340,145.8,342.2z"/>
			<path fill="none" stroke="#000000" stroke-linecap="round" stroke-linejoin="round" stroke-miterlimit="10" d="M145.8,342.2
				c0,2.2-1.8,4-4,4s-4-1.8-4-4c0-2.2,1.8-4,4-4S145.8,340,145.8,342.2z"/>
			<g enable-background="new    ">
				<path fill="#616161" d="M147.5,334.4v-11.5h1.5v11.5H147.5z"/>
			</g>
			<g enable-background="new    ">
				<path fill="none" stroke="#FFFFFF" stroke-width="3" stroke-linejoin="bevel" stroke-miterlimit="10" d="M147.5,334.4v-11.5h1.5
					v11.5H147.5z"/>
			</g>
			<g enable-background="new    ">
				<path fill="#616161" d="M147.5,334.4v-11.5h1.5v11.5H147.5z"/>
			</g>
			<path fill="#1565C0" d="M254.8,119c0,2.8-2.2,5-5,5s-5-2.2-5-5c0-2.8,2.2-5,5-5S254.8,116.2,254.8,119z"/>
			<path fill="none" stroke="#000000" stroke-linecap="round" stroke-linejoin="round" stroke-miterlimit="10" d="M254.8,119
				c0,2.8-2.2,5-5,5s-5-2.2-5-5c0-2.8,2.2-5,5-5S254.8,116.2,254.8,119z"/>
			<g enable-background="new    ">
				<path fill="#1565C0" d="M255.2,109.4V97.9h3.9c0.9,0,1.6,0.1,2,0.2c0.7,0.2,1.2,0.4,1.7,0.8c0.6,0.5,1.1,1.2,1.4,2
					c0.3,0.8,0.4,1.7,0.4,2.7c0,0.9-0.1,1.6-0.3,2.3s-0.5,1.2-0.8,1.7c-0.3,0.4-0.7,0.8-1,1c-0.4,0.3-0.8,0.4-1.4,0.6
					c-0.5,0.1-1.1,0.2-1.8,0.2H255.2z M256.8,108h2.4c0.8,0,1.3-0.1,1.8-0.2s0.8-0.3,1-0.6c0.4-0.4,0.6-0.8,0.8-1.4
					c0.2-0.6,0.3-1.3,0.3-2.2c0-1.2-0.2-2.1-0.6-2.8c-0.4-0.6-0.9-1.1-1.4-1.3c-0.4-0.2-1.1-0.2-2-0.2h-2.4V108z"/>
				<path fill="#1565C0" d="M266.6,102l-0.4-2.1v-1.9h1.6v1.9l-0.4,2.1H266.6z"/>
			</g>
			<g enable-background="new    ">
				<path fill="none" stroke="#FFFFFF" stroke-width="3" stroke-linejoin="bevel" stroke-miterlimit="10" d="M255.2,109.4V97.9h3.9
					c0.9,0,1.6,0.1,2,0.2c0.7,0.2,1.2,0.4,1.7,0.8c0.6,0.5,1.1,1.2,1.4,2c0.3,0.8,0.4,1.7,0.4,2.7c0,0.9-0.1,1.6-0.3,2.3
					s-0.5,1.2-0.8,1.7c-0.3,0.4-0.7,0.8-1,1c-0.4,0.3-0.8,0.4-1.4,0.6c-0.5,0.1-1.1,0.2-1.8,0.2H255.2z M256.8,108h2.4
					c0.8,0,1.3-0.1,1.8-0.2s0.8-0.3,1-0.6c0.4-0.4,0.6-0.8,0.8-1.4c0.2-0.6,0.3-1.3,0.3-2.2c0-1.2-0.2-2.1-0.6-2.8
					c-0.4-0.6-0.9-1.1-1.4-1.3c-0.4-0.2-1.1-0.2-2-0.2h-2.4V108z"/>
				<path fill="none" stroke="#FFFFFF" stroke-width="3" stroke-linejoin="bevel" stroke-miterlimit="10" d="M266.6,102l-0.4-2.1
					v-1.9h1.6v1.9l-0.4,2.1H266.6z"/>
			</g>
			<g enable-background="new    ">
				<path fill="#1565C0" d="M255.2,109.4V97.9h3.9c0.9,0,1.6,0.1,2,0.2c0.7,0.2,1.2,0.4,1.7,0.8c0.6,0.5,1.1,1.2,1.4,2
					c0.3,0.8,0.4,1.7,0.4,2.7c0,0.9-0.1,1.6-0.3,2.3s-0.5,1.2-0.8,1.7c-0.3,0.4-0.7,0.8-1,1c-0.4,0.3-0.8,0.4-1.4,0.6
					c-0.5,0.1-1.1,0.2-1.8,0.2H255.2z M256.8,108h2.4c0.8,0,1.3-0.1,1.8-0.2s0.8-0.3,1-0.6c0.4-0.4,0.6-0.8,0.8-1.4
					c0.2-0.6,0.3-1.3,0.3-2.2c0-1.2-0.2-2.1-0.6-2.8c-0.4-0.6-0.9-1.1-1.4-1.3c-0.4-0.2-1.1-0.2-2-0.2h-2.4V108z"/>
				<path fill="#1565C0" d="M266.6,102l-0.4-2.1v-1.9h1.6v1.9l-0.4,2.1H266.6z"/>
			</g>
			<path fill="#1565C0" d="M254.8,254.2c0,2.8-2.2,5-5,5s-5-2.2-5-5c0-2.8,2.2-5,5-5S254.8,251.5,254.8,254.2z"/>
			<path fill="none" stroke="#000000" stroke-linecap="round" stroke-linejoin="round" stroke-miterlimit="10" d="M254.8,254.2
				c0,2.8-2.2,5-5,5s-5-2.2-5-5c0-2.8,2.2-5,5-5S254.8,251.5,254.8,254.2z"/>
			<g enable-background="new    ">
				<path fill="#1565C0" d="M255.3,244.4v-11.5h8.3v1.4h-6.8v3.5h6.3v1.3h-6.3v3.9h7v1.4H255.3z"/>
				<path fill="#1565C0" d="M265.7,237l-0.4-2.1v-1.9h1.6v1.9l-0.4,2.1H265.7z"/>
			</g>
			<g enable-background="new    ">
				<path fill="none" stroke="#FFFFFF" stroke-width="3" stroke-linejoin="bevel" stroke-miterlimit="10" d="M255.3,244.4v-11.5h8.3
					v1.4h-6.8v3.5h6.3v1.3h-6.3v3.9h7v1.4H255.3z"/>
				<path fill="none" stroke="#FFFFFF" stroke-width="3" stroke-linejoin="bevel" stroke-miterlimit="10" d="M265.7,237l-0.4-2.1
					v-1.9h1.6v1.9l-0.4,2.1H265.7z"/>
			</g>
			<g enable-background="new    ">
				<path fill="#1565C0" d="M255.3,244.4v-11.5h8.3v1.4h-6.8v3.5h6.3v1.3h-6.3v3.9h7v1.4H255.3z"/>
				<path fill="#1565C0" d="M265.7,237l-0.4-2.1v-1.9h1.6v1.9l-0.4,2.1H265.7z"/>
			</g>
			<path fill="#1565C0" d="M525.4,254.2c0,2.8-2.2,5-5,5s-5-2.2-5-5c0-2.8,2.2-5,5-5S525.4,251.5,525.4,254.2z"/>
			<path fill="none" stroke="#000000" stroke-linecap="round" stroke-linejoin="round" stroke-miterlimit="10" d="M525.4,254.2
				c0,2.8-2.2,5-5,5s-5-2.2-5-5c0-2.8,2.2-5,5-5S525.4,251.5,525.4,254.2z"/>
			<g enable-background="new    ">
				<path fill="#1565C0" d="M525.3,244.4v-11.5h7.7v1.4h-6.2v3.5h5.4v1.4h-5.4v5.2H525.3z"/>
				<path fill="#1565C0" d="M534.8,237l-0.4-2.1v-1.9h1.6v1.9l-0.4,2.1H534.8z"/>
			</g>
			<g enable-background="new    ">
				<path fill="none" stroke="#FFFFFF" stroke-width="3" stroke-linejoin="bevel" stroke-miterlimit="10" d="M525.3,244.4v-11.5h7.7
					v1.4h-6.2v3.5h5.4v1.4h-5.4v5.2H525.3z"/>
				<path fill="none" stroke="#FFFFFF" stroke-width="3" stroke-linejoin="bevel" stroke-miterlimit="10" d="M534.8,237l-0.4-2.1
					v-1.9h1.6v1.9l-0.4,2.1H534.8z"/>
			</g>
			<g enable-background="new    ">
				<path fill="#1565C0" d="M525.3,244.4v-11.5h7.7v1.4h-6.2v3.5h5.4v1.4h-5.4v5.2H525.3z"/>
				<path fill="#1565C0" d="M534.8,237l-0.4-2.1v-1.9h1.6v1.9l-0.4,2.1H534.8z"/>
			</g>
			<path fill="#1565C0" d="M525.4,119c0,2.8-2.2,5-5,5s-5-2.2-5-5c0-2.8,2.2-5,5-5S525.4,116.2,525.4,119z"/>
			<path fill="none" stroke="#000000" stroke-linecap="round" stroke-linejoin="round" stroke-miterlimit="10" d="M525.4,119
				c0,2.8-2.2,5-5,5s-5-2.2-5-5c0-2.8,2.2-5,5-5S525.4,116.2,525.4,119z"/>
			<g enable-background="new    ">
				<path fill="#1565C0" d="M530.6,104.9v-1.3l4.9,0v4.2c-0.7,0.6-1.5,1-2.3,1.3c-0.8,0.3-1.6,0.4-2.4,0.4c-1.1,0-2.1-0.2-3.1-0.7
					c-0.9-0.5-1.6-1.2-2.1-2.1s-0.7-1.9-0.7-3.1c0-1.1,0.2-2.2,0.7-3.1c0.5-1,1.1-1.7,2-2.2s1.9-0.7,3-0.7c0.8,0,1.6,0.1,2.2,0.4
					c0.7,0.3,1.2,0.6,1.6,1.1c0.4,0.5,0.7,1.1,0.9,1.9l-1.4,0.4c-0.2-0.6-0.4-1-0.6-1.4c-0.3-0.3-0.6-0.6-1.1-0.8
					c-0.5-0.2-1-0.3-1.6-0.3c-0.7,0-1.3,0.1-1.8,0.3c-0.5,0.2-0.9,0.5-1.2,0.8c-0.3,0.3-0.6,0.7-0.7,1.1c-0.3,0.7-0.4,1.5-0.4,2.3
					c0,1,0.2,1.9,0.5,2.6s0.9,1.2,1.5,1.5s1.4,0.5,2.1,0.5c0.7,0,1.3-0.1,1.9-0.4s1.1-0.5,1.4-0.8v-2.1H530.6z"/>
				<path fill="#1565C0" d="M537.5,102l-0.4-2.1v-1.9h1.6v1.9l-0.4,2.1H537.5z"/>
			</g>
			<g enable-background="new    ">
				<path fill="none" stroke="#FFFFFF" stroke-width="3" stroke-linejoin="bevel" stroke-miterlimit="10" d="M530.6,104.9v-1.3
					l4.9,0v4.2c-0.7,0.6-1.5,1-2.3,1.3c-0.8,0.3-1.6,0.4-2.4,0.4c-1.1,0-2.1-0.2-3.1-0.7c-0.9-0.5-1.6-1.2-2.1-2.1s-0.7-1.9-0.7-3.1
					c0-1.1,0.2-2.2,0.7-3.1c0.5-1,1.1-1.7,2-2.2s1.9-0.7,3-0.7c0.8,0,1.6,0.1,2.2,0.4c0.7,0.3,1.2,0.6,1.6,1.1
					c0.4,0.5,0.7,1.1,0.9,1.9l-1.4,0.4c-0.2-0.6-0.4-1-0.6-1.4c-0.3-0.3-0.6-0.6-1.1-0.8c-0.5-0.2-1-0.3-1.6-0.3
					c-0.7,0-1.3,0.1-1.8,0.3c-0.5,0.2-0.9,0.5-1.2,0.8c-0.3,0.3-0.6,0.7-0.7,1.1c-0.3,0.7-0.4,1.5-0.4,2.3c0,1,0.2,1.9,0.5,2.6
					s0.9,1.2,1.5,1.5s1.4,0.5,2.1,0.5c0.7,0,1.3-0.1,1.9-0.4s1.1-0.5,1.4-0.8v-2.1H530.6z"/>
				<path fill="none" stroke="#FFFFFF" stroke-width="3" stroke-linejoin="bevel" stroke-miterlimit="10" d="M537.5,102l-0.4-2.1
					v-1.9h1.6v1.9l-0.4,2.1H537.5z"/>
			</g>
			<g enable-background="new    ">
				<path fill="#1565C0" d="M530.6,104.9v-1.3l4.9,0v4.2c-0.7,0.6-1.5,1-2.3,1.3c-0.8,0.3-1.6,0.4-2.4,0.4c-1.1,0-2.1-0.2-3.1-0.7
					c-0.9-0.5-1.6-1.2-2.1-2.1s-0.7-1.9-0.7-3.1c0-1.1,0.2-2.2,0.7-3.1c0.5-1,1.1-1.7,2-2.2s1.9-0.7,3-0.7c0.8,0,1.6,0.1,2.2,0.4
					c0.7,0.3,1.2,0.6,1.6,1.1c0.4,0.5,0.7,1.1,0.9,1.9l-1.4,0.4c-0.2-0.6-0.4-1-0.6-1.4c-0.3-0.3-0.6-0.6-1.1-0.8
					c-0.5-0.2-1-0.3-1.6-0.3c-0.7,0-1.3,0.1-1.8,0.3c-0.5,0.2-0.9,0.5-1.2,0.8c-0.3,0.3-0.6,0.7-0.7,1.1c-0.3,0.7-0.4,1.5-0.4,2.3
					c0,1,0.2,1.9,0.5,2.6s0.9,1.2,1.5,1.5s1.4,0.5,2.1,0.5c0.7,0,1.3-0.1,1.9-0.4s1.1-0.5,1.4-0.8v-2.1H530.6z"/>
				<path fill="#1565C0" d="M537.5,102l-0.4-2.1v-1.9h1.6v1.9l-0.4,2.1H537.5z"/>
			</g>
		</g>
	</g>
</g>
</svg>
