<?xml version="1.0" encoding="utf-8"?>
<!-- Generator: Adobe Illustrator 26.0.3, SVG Export Plug-In . SVG Version: 6.00 Build 0)  -->
<svg version="1.1" id="Combination" xmlns="http://www.w3.org/2000/svg" xmlns:xlink="http://www.w3.org/1999/xlink" x="0px"
	 y="0px" width="90px" height="35px" viewBox="0 0 90 35" style="enable-background:new 0 0 90 35;" xml:space="preserve">
<path d="M31.7,28.6c1.6-0.8,3-2,4.2-3.4c0.2-0.3,0.2-0.7-0.1-0.9c-0.2-0.2-0.5-0.2-0.7-0.1c-1.5,0.8-3,1.5-4.5,2.3
	c-0.6,0.3-0.8,1-0.5,1.6c0,0,0,0,0,0C30.4,28.7,31.1,28.9,31.7,28.6C31.6,28.6,31.6,28.6,31.7,28.6L31.7,28.6z M29,29.9
	c0.4-0.1,0.8-0.3,1.2-0.5c0.5-0.3,1-0.5,1.5-0.8c0.5-0.4,0.6-1.2,0.1-1.6c-0.3-0.4-0.8-0.5-1.3-0.4c-0.5,0.2-0.9,0.5-1.4,0.7
	c-0.3,0.1-0.5,0.2-0.8,0.3c-0.6,0.2-1,0.8-0.9,1.5c0,0,0,0,0,0C27.6,29.7,28.3,30.1,29,29.9C28.9,29.9,28.9,29.9,29,29.9L29,29.9z
	 M26.2,30.1c0.9,0.1,1.8,0,2.7-0.2c0.6-0.2,1-0.8,0.8-1.5c-0.2-0.6-0.8-1-1.5-0.8l0,0c-0.2,0.1-0.5,0.1-0.8,0.1c-0.4,0-0.8,0-1.3,0
	c-0.7,0-1.2,0.5-1.3,1.2c0,0,0,0,0,0C25,29.5,25.6,30.1,26.2,30.1L26.2,30.1z M23.7,29.9c0.8,0.2,1.7,0.3,2.5,0.3
	c0.7,0,1.2-0.6,1.2-1.3c0-0.6-0.5-1.1-1.1-1.2c-0.4,0-0.8,0-1.3-0.1c-0.2,0-0.5-0.1-0.7-0.1c-0.7-0.2-1.3,0.2-1.5,0.9
	C22.7,29,23.1,29.7,23.7,29.9C23.7,29.9,23.7,29.9,23.7,29.9L23.7,29.9z M22,29.1c0.5,0.3,1.1,0.6,1.7,0.8c0.7,0.2,1.3-0.2,1.5-0.8
	c0.2-0.7-0.2-1.3-0.8-1.5c0,0,0,0-0.1,0c-0.3-0.1-0.7-0.2-0.9-0.4c-0.6-0.4-1.3-0.2-1.7,0.3C21.3,28,21.5,28.7,22,29.1z M20.7,28
	c0.4,0.4,0.8,0.8,1.3,1.1c0.6,0.4,1.3,0.2,1.7-0.4c0.4-0.6,0.2-1.3-0.3-1.7c-0.3-0.2-0.7-0.5-1-0.8c-0.5-0.5-1.3-0.5-1.7,0
	C20.2,26.8,20.2,27.6,20.7,28z M19.8,26.4c0.2,0.6,0.5,1.2,0.9,1.7c0.5,0.5,1.3,0.5,1.7,0s0.5-1.3,0-1.7l0,0l0,0
	c-0.2-0.2-0.3-0.3-0.3-0.5c-0.2-0.6-0.8-1-1.5-0.9C20,25.1,19.7,25.7,19.8,26.4L19.8,26.4z M19.8,26.4L19.8,26.4
	c0.2,0.7,0.8,1.1,1.5,0.9s1.1-0.8,0.9-1.5l0,0l0,0c-0.1-0.3-0.1-0.7-0.1-1c0-0.7-0.6-1.1-1.3-1.1c-0.6,0-1,0.5-1.1,1
	C19.6,25.3,19.7,25.8,19.8,26.4z M22,24.8c0-0.4,0-0.7,0.1-1.1c0.2-0.6-0.2-1.2-0.8-1.4c-0.6-0.2-1.2,0.2-1.4,0.8
	c-0.1,0.5-0.2,1.1-0.3,1.6c0,0.6,0.4,1.2,1.1,1.2C21.4,26,21.9,25.5,22,24.8C22,24.8,22,24.8,22,24.8z M22.1,23.7
	c0.1-0.3,0.2-0.7,0.4-1c0.3-0.5,0.1-1.2-0.4-1.5s-1.2-0.1-1.5,0.4l0,0c-0.3,0.5-0.5,1-0.7,1.6c-0.2,0.6,0.2,1.2,0.8,1.4
	S21.9,24.3,22.1,23.7L22.1,23.7L22.1,23.7z M22.5,22.7c0.2-0.4,0.5-0.8,0.9-1.1c0.4-0.5,0.3-1.2-0.2-1.5c-0.4-0.3-1-0.3-1.4,0.1
	c-0.4,0.5-0.8,1-1.2,1.5c-0.3,0.5-0.2,1.2,0.4,1.5C21.5,23.4,22.2,23.2,22.5,22.7L22.5,22.7L22.5,22.7z M23.4,21.5
	c0.6-0.7,1.3-1.3,2-1.9c0.5-0.4,0.5-1,0.1-1.5s-1-0.5-1.5-0.1c-0.8,0.6-1.5,1.3-2.2,2c-0.4,0.4-0.4,1.1,0,1.5c0,0,0,0,0,0
	C22.2,21.9,22.8,21.9,23.4,21.5L23.4,21.5z M25.4,19.6c0.7-0.6,1.5-1.2,2.3-1.7c0.5-0.3,0.7-0.9,0.4-1.4c-0.3-0.5-0.9-0.7-1.4-0.4
	c0,0,0,0,0,0l0,0c-0.9,0.6-1.8,1.2-2.6,1.9c-0.5,0.4-0.5,1.1-0.1,1.5S24.9,20,25.4,19.6L25.4,19.6z M27.7,17.9
	c0.5-0.3,1-0.5,1.5-0.7c0.6-0.1,1-0.7,0.9-1.3s-0.7-1-1.3-0.9c-0.1,0-0.1,0-0.2,0l0,0c-0.7,0.2-1.4,0.5-2,0.9
	c-0.5,0.3-0.7,0.9-0.4,1.5S27.2,18.2,27.7,17.9L27.7,17.9z M29.2,17.2c0.4-0.1,0.7-0.2,1.1-0.2c0.6,0,1.1-0.4,1.1-1
	c0-0.6-0.4-1.1-1-1.2l0,0l0,0c-0.6,0-1.2,0.1-1.8,0.3c-0.6,0.2-0.9,0.8-0.7,1.3c0,0,0,0,0,0C28.1,17.1,28.6,17.4,29.2,17.2
	L29.2,17.2z M30.3,17.1c0.1,0,0.1,0,0.2,0c0.1,0-0.2-0.1,0.1,0c0.5,0.4,1.2,0.3,1.5-0.2c0.4-0.5,0.3-1.2-0.1-1.5l0,0
	c-0.4-0.4-1-0.6-1.6-0.6c-0.6,0-1.1,0.4-1.1,1.1C29.2,16.5,29.7,17,30.3,17.1L30.3,17.1z M30.3,17C30.5,17.1,30.3,17,30.3,17
	C30.3,16.8,30.3,16.7,30.3,17c-0.1,0.6,0.4,1.1,1,1.2s1.2-0.4,1.2-1c0-0.1,0-0.1,0-0.2c0-0.5-0.2-1.1-0.6-1.4
	c-0.4-0.4-1.1-0.5-1.6-0.1S30,16.5,30.3,17L30.3,17L30.3,17z M32.2,18.9c0.1-0.3,0.3-0.7,0.4-1c0.1-0.3,0.1-0.6,0.1-0.9
	c0-0.6-0.6-1.1-1.2-1.1c-0.5,0-1,0.4-1.1,1c0,0.1,0,0.2-0.1,0.3c-0.1,0.3-0.2,0.6-0.3,0.9c-0.2,0.6,0,1.3,0.6,1.5c0,0,0,0,0,0
	C31.3,19.8,31.9,19.5,32.2,18.9L32.2,18.9z M31.2,20.9c0.4-0.6,0.7-1.3,1-2c0.2-0.6-0.1-1.3-0.7-1.5c-0.6-0.2-1.3,0.1-1.5,0.7
	c-0.2,0.5-0.4,1-0.7,1.4c-0.4,0.5-0.3,1.2,0.2,1.6c0,0,0,0,0,0C30,21.5,30.8,21.4,31.2,20.9L31.2,20.9z M29.5,22.7
	c0.6-0.5,1.2-1.1,1.7-1.8c0.4-0.5,0.2-1.3-0.3-1.6c-0.5-0.4-1.2-0.2-1.6,0.3c-0.4,0.5-0.9,1-1.4,1.4c-0.5,0.4-0.6,1.2-0.1,1.7
	S28.9,23.1,29.5,22.7L29.5,22.7L29.5,22.7L29.5,22.7z M26.9,24.4c0.9-0.5,1.8-1.1,2.5-1.8c0.5-0.4,0.5-1.2,0.1-1.7c0,0,0,0,0,0
	c-0.4-0.5-1.2-0.5-1.7-0.1c-0.6,0.5-1.3,1-2,1.4c-0.6,0.4-0.7,1.1-0.4,1.7C25.8,24.5,26.4,24.7,26.9,24.4L26.9,24.4z M23.8,25.1
	c1.1,0.1,2.2-0.1,3.1-0.6c0.6-0.3,0.8-1,0.5-1.6c-0.3-0.6-1-0.8-1.6-0.5l0,0c-0.6,0.3-1.2,0.5-1.9,0.4c-0.6,0-1.2,0.5-1.2,1.1
	c0,0,0,0,0,0C22.8,24.4,23.2,25,23.8,25.1L23.8,25.1z M23.8,25.1L23.8,25.1c0.7,0,1.2-0.5,1.3-1.1c0-0.7-0.5-1.2-1.1-1.3l0,0
	c-0.2,0-0.4,0-0.6-0.1l0,0c-0.3-0.4-1-0.5-1.4-0.1c0,0,0,0,0,0c-0.2,0.2-0.3,0.4-0.4,0.7c0,0.6,0.3,1.2,0.9,1.5
	C22.8,24.9,23.3,25,23.8,25.1L23.8,25.1z M23.5,23c0,0,0-0.1,0-0.1c0.2-0.4,0-1-0.4-1.2c-0.4-0.2-0.8-0.1-1.1,0.3
	c-0.3,0.4-0.5,0.8-0.5,1.3c-0.1,0.6,0.4,1.1,0.9,1.1c0.6,0.1,1.1-0.4,1.1-0.9C23.6,23.3,23.6,23.1,23.5,23L23.5,23z M23.5,22.8
	c0.1-0.2,0.3-0.4,0.5-0.6c0.3-0.4,0.7-0.7,1-1.1c0.3-0.3,0.3-0.7,0.1-1.1c-0.3-0.3-0.7-0.3-1.1,0c-0.4,0.3-0.8,0.7-1.2,1
	c-0.3,0.3-0.5,0.5-0.8,0.9c-0.3,0.4-0.2,0.9,0.2,1.2c0.4,0.3,0.9,0.2,1.2-0.2c0,0,0,0,0,0C23.4,22.9,23.5,22.8,23.5,22.8L23.5,22.8z
	"/>
<path d="M43.7,27.3c1.2,0.7,2.9,1.1,4.1,0.2c0.4-0.3,0.5-0.8,0.2-1.1c-0.1-0.2-0.3-0.3-0.5-0.3c-0.9-0.2-1.7-0.5-2.5-1l0,0
	c-0.7-0.3-1.5-0.1-1.8,0.6C42.9,26.2,43.1,26.9,43.7,27.3L43.7,27.3z M41,25.8l2.7,1.5c0.6,0.3,1.5,0.1,1.8-0.5
	c0.3-0.6,0.1-1.4-0.5-1.8c-0.9-0.5-1.8-1-2.7-1.5c-0.6-0.3-1.4-0.1-1.8,0.5C40.1,24.7,40.4,25.5,41,25.8z M38.2,24.4
	c1,0.4,1.9,0.8,2.9,1.4c0.7,0.3,1.4,0,1.7-0.7c0.3-0.6,0.1-1.3-0.5-1.6l0,0c-1.1-0.5-2.2-1-3.3-1.3c-0.7-0.2-1.3,0.2-1.5,0.9
	C37.3,23.6,37.6,24.2,38.2,24.4L38.2,24.4z M35.8,23.1c0.3,0.3,0.6,0.5,1,0.7c0.5,0.2,0.9,0.4,1.4,0.6c0.6,0.3,1.3,0,1.6-0.6
	s0-1.3-0.6-1.6c0,0-0.1,0-0.1,0H39c-0.7-0.2-1.4-0.4-2.1-0.7c-0.5-0.3-1.1-0.2-1.4,0.3C35.2,22.2,35.3,22.9,35.8,23.1L35.8,23.1
	L35.8,23.1z M35.8,23.1L35.8,23.1c0.4,0.4,1,0.4,1.4,0c0,0,0,0,0.1-0.1c0.1-0.2,0.2-0.4,0.3-0.6l0.5-0.2c0.6,0,1-0.5,1-1
	c0-0.6-0.5-1-1-1c-0.2,0-0.3,0.1-0.5,0.1l0,0c-0.5,0.2-1,0.4-1.5,0.7c-0.3,0.2-0.5,0.5-0.6,0.9C35.3,22.4,35.5,22.8,35.8,23.1
	L35.8,23.1z M38,22.3c1.1-0.3,2.2-0.7,3.2-1.1c0.5-0.2,0.8-0.9,0.5-1.4c0,0,0,0,0,0c-0.2-0.5-0.9-0.8-1.4-0.5h0
	c-0.9,0.5-1.9,0.9-2.9,1.2c-0.5,0.3-0.6,0.9-0.4,1.4C37.3,22.1,37.6,22.3,38,22.3L38,22.3z M41.3,21.2c0.9-0.4,1.7-0.9,2.5-1.5
	c0.5-0.4,0.5-1.1,0-1.6c-0.4-0.4-1-0.5-1.4-0.2l0,0c-0.6,0.5-1.3,1-2,1.3c-0.5,0.3-0.7,0.9-0.5,1.4C40.1,21.2,40.8,21.4,41.3,21.2
	L41.3,21.2z M43.7,19.7c0.3-0.2,0.6-0.5,0.9-0.8c0.3-0.2,0.5-0.5,0.6-0.8c0.3-0.6,0-1.2-0.5-1.5c-0.5-0.3-1.2-0.1-1.5,0.4l0,0l0,0
	l-0.2,0.2c-0.2,0.2-0.5,0.4-0.7,0.6c-0.5,0.4-0.5,1.1,0,1.6C42.7,19.9,43.3,19.9,43.7,19.7L43.7,19.7z M45.3,18.1
	c0.2-0.4,0.4-0.9,0.4-1.4c0-0.6-0.5-1.2-1.2-1.2c-0.6,0-1.2,0.5-1.2,1.2c0,0,0,0,0,0l0,0c0,0.1,0,0.2-0.1,0.3l0,0
	c-0.1,0.6,0.2,1.2,0.9,1.4C44.5,18.5,45,18.4,45.3,18.1L45.3,18.1z M43.1,16c0.1,0.2,0.1,0.4,0.2,0.5c0,0.1,0,0.2,0,0.2
	c0,0.6,0.5,1.2,1.2,1.2c0.6,0,1.2-0.5,1.2-1.2c0-0.6-0.2-1.1-0.4-1.6c-0.2-0.6-0.9-0.9-1.5-0.6C43.1,14.8,42.8,15.5,43.1,16L43.1,16
	z M42.8,15.4c0,0,0.1,0.1,0.1,0.1c0.1,0.1,0.2,0.3,0.2,0.5c0.2,0.6,0.9,0.9,1.5,0.6c0.6-0.2,0.9-0.9,0.6-1.5
	c-0.2-0.6-0.6-1.1-1.1-1.5c-0.5-0.3-1.3-0.2-1.6,0.4C42.3,14.5,42.4,15.1,42.8,15.4L42.8,15.4z M42,15.3c0.2,0,0.4,0.1,0.6,0.1
	c0.1,0,0.2,0.1,0.3,0.1c0.5,0.4,1.2,0.3,1.6-0.2c0,0,0,0,0,0c0.3-0.5,0.2-1.2-0.2-1.6c-0.6-0.4-1.3-0.6-2-0.5
	c-0.6,0-1.1,0.5-1.1,1.1C41,14.7,41.4,15.2,42,15.3L42,15.3z M40.5,15.3c0.5-0.1,1-0.1,1.5-0.1c0.6,0,1.1-0.4,1.2-1
	c0-0.6-0.4-1-0.9-1.1h-0.1c-0.8,0-1.5,0.1-2.3,0.4c-0.5,0.3-0.6,0.9-0.3,1.4C39.8,15.2,40.2,15.4,40.5,15.3L40.5,15.3z M39.8,15.7
	c0.2-0.2,0.5-0.3,0.7-0.4c0.5-0.2,0.7-0.8,0.5-1.3c-0.2-0.4-0.6-0.6-1-0.6l-0.1,0.1c-0.6,0.2-1.2,0.6-1.6,1.2
	c-0.3,0.4-0.1,1,0.3,1.3C39,16.1,39.5,16.1,39.8,15.7L39.8,15.7z M38.9,17.4c0.2-0.4,0.3-0.8,0.5-1.1c0.1-0.2,0.2-0.4,0.3-0.6
	c0.3-0.4,0.3-1-0.1-1.3c-0.4-0.3-1-0.3-1.3,0.1c0,0-0.1,0.1-0.1,0.1l0,0c-0.4,0.6-0.8,1.3-1.1,2c-0.4,0.4-0.3,1,0.1,1.4
	c0.4,0.4,1,0.3,1.4-0.1C38.8,17.9,38.9,17.7,38.9,17.4L38.9,17.4z M37.8,20.8c0.3-1.1,0.7-2.2,1.1-3.3c0.2-0.5-0.1-1-0.5-1.2
	c-0.5-0.2-1,0-1.2,0.4c-0.5,1.1-1,2.2-1.4,3.4c-0.2,0.5,0.1,1.2,0.6,1.4c0,0,0,0,0,0C36.9,21.6,37.5,21.4,37.8,20.8L37.8,20.8z
	 M36.4,25c0.5-1.4,1-2.8,1.4-4.2c0.1-0.6-0.3-1.1-0.9-1.2c-0.5-0.1-0.9,0.1-1.1,0.6c-0.5,1.3-1.1,2.7-1.6,4c-0.3,0.6,0,1.3,0.6,1.6
	c0.6,0.3,1.3,0,1.6-0.6C36.4,25,36.4,25,36.4,25L36.4,25z M35.2,28.3c0.4-1.1,0.8-2.2,1.2-3.3c0.1-0.7-0.4-1.3-1-1.4
	c-0.4-0.1-0.9,0.1-1.2,0.5c-0.5,1.1-1,2.3-1.4,3.4c-0.2,0.7,0.3,1.4,1,1.6C34.4,29.2,35,28.9,35.2,28.3L35.2,28.3z M34.7,29.7
	c0.2-0.5,0.3-0.9,0.5-1.4c0.2-0.7-0.1-1.4-0.8-1.6c-0.7-0.2-1.4,0.1-1.6,0.8l0,0c-0.1,0.5-0.3,0.9-0.5,1.4c-0.3,0.7,0,1.4,0.7,1.7
	c0.7,0.3,1.4,0,1.7-0.7C34.7,29.8,34.7,29.8,34.7,29.7z M32.2,29.3L32.2,29.3c-0.1,0.7,0.5,1.3,1.2,1.4c0.5,0.1,1.1-0.2,1.3-0.7
	c0-0.1,0.1-0.1,0.1-0.2l0,0v-0.1c0.3-0.7,0-1.4-0.7-1.7c-0.7-0.3-1.4,0-1.7,0.7c0,0.1-0.1,0.1-0.1,0.2c0,0.1-0.1,0.1-0.1,0.2
	L32.2,29.3z M34.7,29.8l0.2-0.6c0.2-0.7-0.1-1.4-0.8-1.6c-0.7-0.2-1.4,0.1-1.6,0.8L32.2,29c-0.2,0.7,0.2,1.4,0.9,1.6
	C33.8,30.7,34.4,30.4,34.7,29.8L34.7,29.8z M34.9,29.2c0.1-0.3,0.2-0.6,0.3-0.9l0.7-1.8c0.3-0.6,0-1.4-0.7-1.7
	c-0.6-0.3-1.4,0-1.7,0.7l0,0c-0.4,0.9-0.8,1.9-1.1,2.8c-0.2,0.7,0.1,1.4,0.8,1.6C33.9,30.2,34.6,29.8,34.9,29.2L34.9,29.2z
	 M35.9,26.5c0.6-1.4,1.2-2.9,1.7-4.3c0.3-0.6-0.1-1.4-0.7-1.6c-0.6-0.3-1.4,0.1-1.6,0.7l0,0c-0.6,1.4-1.2,2.8-1.8,4.3
	c-0.3,0.6,0,1.4,0.7,1.7S35.7,27.2,35.9,26.5L35.9,26.5L35.9,26.5z M37.7,22.2c0.6-1.5,1.1-2.9,1.7-4.4c0.2-0.7-0.1-1.4-0.8-1.6
	C38,16,37.3,16.3,37,16.9c-0.6,1.5-1.1,2.9-1.7,4.3c-0.3,0.6,0.1,1.4,0.7,1.6C36.7,23.1,37.4,22.8,37.7,22.2z M39.4,17.8
	c0.8-2.1,1.5-4.3,2.3-6.4c0.2-0.6-0.1-1.3-0.7-1.5c-0.6-0.2-1.2,0.1-1.4,0.7c-0.8,2.1-1.6,4.2-2.4,6.3c-0.3,0.6,0,1.4,0.6,1.6
	C38.3,18.8,39.1,18.5,39.4,17.8C39.4,17.9,39.4,17.8,39.4,17.8z M41.7,11.4c0.7-2.1,1.4-4.2,2-6.3c0-0.6-0.4-1-0.9-1.1
	c-0.4,0-0.7,0.2-0.9,0.5c-0.8,2-1.6,4-2.3,6.1c-0.2,0.6,0.1,1.3,0.7,1.5C40.7,12.3,41.4,12,41.7,11.4L41.7,11.4L41.7,11.4z
	 M43.7,5.1c0.2-0.8,0.4-1.5,0.6-2.3c0.1-0.5-0.3-0.9-0.7-1c-0.3,0-0.7,0.1-0.9,0.4l-0.8,2.2c-0.2,0.5,0.1,1.1,0.6,1.3
	C42.9,6,43.5,5.7,43.7,5.1L43.7,5.1z M44.3,2.9c0,0,0-0.1,0-0.1c0.1-0.2,0-0.5-0.1-0.7c-0.1-0.1-0.2-0.2-0.3-0.3
	c-0.2-0.1-0.4-0.1-0.6,0c-0.3,0.1-0.5,0.3-0.6,0.6c-0.1,0.5,0.1,0.9,0.6,1.1c0.4,0.1,0.9-0.1,1-0.5C44.3,3,44.3,2.9,44.3,2.9
	L44.3,2.9z M44.2,3.4l0.2-0.4c0,0,0.1-0.2,0-0.1c0.2-0.4,0-0.9-0.5-1.1c-0.4-0.2-0.9,0-1.1,0.4c0,0,0,0,0,0c0,0.1-0.1,0.2-0.1,0.4
	v0.6c-0.1,0.4,0.2,0.8,0.6,0.9C43.7,4.1,44.1,3.8,44.2,3.4L44.2,3.4z"/>
<path d="M57.5,28.7c0.5-0.5,0.8-1.1,1.1-1.8c0.4-0.9,0.7-1.7,1-2.6c0.1-0.3-0.1-0.7-0.4-0.8c-0.3-0.1-0.6,0-0.7,0.2
	c-0.5,0.7-1,1.5-1.6,2.2c-0.3,0.4-0.7,0.8-1.1,1.2c-0.5,0.4-0.6,1.1-0.2,1.6c0.4,0.5,1.1,0.6,1.6,0.2C57.4,28.8,57.4,28.8,57.5,28.7
	L57.5,28.7z M55.5,29.7c0.5,0.1,1,0,1.3-0.3c0.3-0.2,0.5-0.4,0.8-0.7c0.4-0.5,0.3-1.2-0.2-1.6c-0.4-0.3-1-0.3-1.5,0
	c-0.1,0.1-0.2,0.1-0.2,0.2l0,0c-0.7,0-1.2,0.6-1.2,1.3C54.5,29.1,54.9,29.5,55.5,29.7z M55.5,29.7L55.5,29.7
	c0.7,0.1,1.3-0.3,1.5-0.9c0.1-0.3,0-0.7-0.2-1c0-0.4,0-0.8,0-1.2c0-0.7-0.6-1.2-1.2-1.2c-0.6,0-1.1,0.5-1.2,1c0,0.5,0,1.1,0,1.6
	c0,0.3,0.1,0.5,0.2,0.8C54.7,29.2,55,29.5,55.5,29.7z M56.7,26.5c0-1.2,0.2-2.3,0.4-3.4c0.1-0.6-0.2-1.3-0.9-1.4c0,0,0,0-0.1,0
	c-0.6-0.1-1.2,0.3-1.4,0.9c-0.3,1.2-0.4,2.5-0.5,3.8c-0.1,0.7,0.4,1.3,1,1.3c0.7,0.1,1.3-0.4,1.3-1C56.7,26.6,56.7,26.6,56.7,26.5
	L56.7,26.5z M57.1,23.1c0.2-0.8,0.3-1.5,0.5-2.3c0.2-0.6-0.2-1.2-0.8-1.4s-1.2,0.2-1.4,0.8c0,0,0,0.1,0,0.1l-0.5,2.3
	c-0.1,0.6,0.3,1.2,0.9,1.3C56.4,24,56.9,23.7,57.1,23.1L57.1,23.1z M55.7,21.4L55.7,21.4c0.5,0.4,1.2,0.4,1.6-0.1c0,0,0,0,0,0
	c0.1-0.1,0.2-0.3,0.3-0.5c0-0.1,0-0.3,0-0.4c0-0.5-0.2-0.9-0.6-1.1l-0.2-0.1c-0.4-0.1-0.9,0-1.2,0.3c-0.1,0.1-0.2,0.2-0.2,0.3
	C55,20.3,55.1,21,55.7,21.4L55.7,21.4L55.7,21.4z M56.1,22.8l1.2-1.7c0.3-0.5,0.2-1.3-0.4-1.6c-0.5-0.3-1.2-0.2-1.5,0.3l-1.2,1.7
	c-0.4,0.5-0.2,1.3,0.3,1.6S55.7,23.3,56.1,22.8L56.1,22.8z M54.5,25c0.6-0.7,1.1-1.5,1.6-2.2c0.3-0.6,0.1-1.3-0.5-1.6
	c-0.5-0.2-1-0.1-1.4,0.2c-0.5,0.7-1,1.4-1.5,2l0,0c-0.5,0.5-0.5,1.3,0,1.7s1.3,0.5,1.7,0C54.4,25.2,54.4,25.1,54.5,25
	C54.4,25.1,54.4,25,54.5,25L54.5,25z M52.2,27.5c0.8-0.8,1.5-1.6,2.2-2.4c0.4-0.5,0.4-1.3-0.1-1.7c-0.5-0.4-1.3-0.4-1.7,0.1
	c-0.7,0.8-1.4,1.5-2.2,2.3c-0.4,0.5-0.4,1.3,0.2,1.8C51.1,27.9,51.8,27.9,52.2,27.5z M49.8,29.7c0.4-0.3,0.8-0.6,1.1-0.9
	c0.5-0.4,0.9-0.9,1.4-1.3c0.5-0.5,0.6-1.3,0.1-1.8c-0.5-0.5-1.3-0.6-1.8-0.1c-0.1,0-0.1,0.1-0.1,0.2c-0.4,0.4-0.8,0.8-1.2,1.2
	c-0.3,0.2-0.5,0.5-0.8,0.7c-0.6,0.4-0.7,1.2-0.3,1.7C48.4,29.9,49.2,30,49.8,29.7z M47,30.3c1,0.1,1.9-0.2,2.8-0.7
	c0.5-0.5,0.4-1.3-0.1-1.8c-0.4-0.3-0.9-0.4-1.3-0.2l0,0c-0.4,0.2-0.8,0.3-1.2,0.3c-0.7,0-1.3,0.5-1.3,1.2S46.3,30.4,47,30.3L47,30.3
	z M44.6,29.2c0.6,0.8,1.5,1.2,2.5,1.2c0.7-0.1,1.2-0.7,1.1-1.3c0-0.5-0.4-1-1-1.1l0,0c-0.2,0-0.4,0-0.6-0.1l0,0
	c-0.5-0.5-1.2-0.5-1.7,0C44.5,28.1,44.4,28.7,44.6,29.2L44.6,29.2z M44.6,29.2L44.6,29.2c0.3,0.6,1,0.9,1.6,0.6
	c0.6-0.3,0.9-1,0.6-1.6l0,0c-0.1-0.2-0.1-0.3-0.1-0.5c0-0.3,0-0.7,0-1c0-0.7-0.5-1.2-1.1-1.3c-0.7,0-1.2,0.5-1.3,1.1
	c0,0.5,0,1,0,1.5C44.3,28.4,44.4,28.8,44.6,29.2L44.6,29.2z M46.7,26.7c0-0.8,0.1-1.5,0.4-2.3c0.2-0.6-0.1-1.3-0.7-1.5c0,0,0,0,0,0
	c-0.6-0.2-1.3,0.1-1.5,0.7c-0.3,0.9-0.5,1.9-0.5,2.9c0,0.7,0.5,1.3,1.1,1.3S46.6,27.4,46.7,26.7L46.7,26.7z M47.1,24.4
	c0.2-0.6,0.5-1.3,0.8-1.9c0.3-0.6,0.1-1.3-0.5-1.6c-0.6-0.3-1.3-0.1-1.6,0.5l0,0l0,0c-0.3,0.7-0.6,1.4-0.9,2.1
	c-0.3,0.6,0,1.3,0.6,1.6c0.6,0.3,1.3,0,1.6-0.6C47,24.5,47,24.4,47.1,24.4L47.1,24.4z M47.8,22.5c0.3-0.6,0.6-1.1,1-1.7
	c0.4-0.5,0.4-1.3-0.1-1.7s-1.3-0.4-1.7,0.1c0,0.1-0.1,0.1-0.1,0.2l0,0c-0.5,0.6-0.9,1.3-1.2,2c-0.2,0.6,0.1,1.3,0.7,1.5
	c0.5,0.2,1.1,0,1.4-0.5L47.8,22.5z M48.8,20.8c0.4-0.5,0.8-1.1,1.3-1.5c0.5-0.5,0.5-1.3,0-1.7c-0.5-0.5-1.3-0.5-1.7,0l0,0
	c-0.5,0.6-1,1.2-1.5,1.8c-0.4,0.5-0.3,1.3,0.3,1.7c0,0,0,0,0,0C47.8,21.4,48.5,21.3,48.8,20.8L48.8,20.8z M50.2,19.3
	c0.4-0.4,0.9-0.9,1.4-1.2c0.6-0.4,0.7-1.2,0.2-1.8c-0.4-0.6-1.2-0.7-1.8-0.2l0,0l0,0c-0.6,0.5-1.1,1-1.6,1.5c-0.5,0.5-0.5,1.3,0,1.7
	S49.7,19.8,50.2,19.3z M51.6,18.1c0.4-0.3,0.8-0.6,1.2-0.8c0.6-0.3,0.9-1,0.6-1.6c0,0,0,0,0,0c-0.3-0.6-1-0.9-1.7-0.6c0,0,0,0,0,0
	c-0.6,0.3-1.2,0.6-1.7,1.1c-0.6,0.4-0.7,1.2-0.2,1.8C50.2,18.4,51,18.5,51.6,18.1L51.6,18.1z M52.8,17.3c0.2-0.1,0.5-0.2,0.8-0.2
	c0.7,0,1.2-0.6,1.2-1.2c0-0.7-0.6-1.2-1.2-1.2c-0.6,0-1.3,0.2-1.8,0.4c-0.7,0.2-1,0.9-0.8,1.6c0.2,0.7,0.9,1,1.6,0.8
	C52.6,17.4,52.7,17.4,52.8,17.3L52.8,17.3z M53.6,17.1c0.4,0,0.7,0,1.1,0.1c0.6,0.1,1.3-0.3,1.4-1c0.1-0.6-0.2-1.1-0.8-1.3
	c-0.5-0.2-1.1-0.3-1.7-0.3c-0.7,0-1.2,0.6-1.2,1.2S52.9,17.2,53.6,17.1L53.6,17.1z M54.7,17.2L54.7,17.2c0.2,0.5,0.7,0.8,1.2,0.6
	c0.3-0.1,0.5-0.3,0.6-0.6c0.1-0.4,0.1-0.9-0.1-1.3c-0.2-0.4-0.6-0.8-1.1-0.9c-0.6-0.2-1.3,0.1-1.5,0.8c-0.2,0.6,0.1,1.2,0.7,1.5
	C54.5,17.2,54.7,17.2,54.7,17.2z M55.6,18.8c0.4-0.5,0.8-1,1-1.6c0.3-0.5,0.1-1.1-0.4-1.4c-0.5-0.3-1.1-0.1-1.4,0.4
	c-0.1,0.1-0.1,0.3-0.1,0.4c0,0.2,0,0.3,0,0.5c0,0.3-0.1,0.6-0.2,0.8c-0.2,0.3-0.1,0.8,0.2,1C55,19.1,55.4,19.1,55.6,18.8L55.6,18.8z
	 M53.2,20.8c0.9-0.5,1.7-1.2,2.3-2c0.3-0.3,0.2-0.7-0.1-1c-0.3-0.2-0.7-0.2-1,0.1V18c-0.5,0.7-1.1,1.3-1.9,1.7
	c-0.3,0.1-0.5,0.5-0.3,0.8c0.1,0.3,0.5,0.5,0.8,0.3C53.2,20.8,53.2,20.8,53.2,20.8L53.2,20.8z"/>
<path d="M70.9,20.2c0.5-0.9,0.9-2,1.2-3c0.1-0.4-0.1-0.8-0.5-0.9c0,0,0,0,0,0c-0.2,0-0.3,0-0.5,0.1c-0.5,0.3-0.9,0.6-1.2,1
	c-0.4,0.5-0.8,1.1-1.1,1.6c-0.3,0.6-0.1,1.3,0.4,1.6c0,0,0,0,0,0C69.8,21,70.6,20.8,70.9,20.2L70.9,20.2z M68.6,24.2
	c0.8-1.3,1.6-2.6,2.3-4c0.3-0.6,0.1-1.3-0.5-1.6c-0.6-0.3-1.3-0.1-1.6,0.5c-0.7,1.3-1.5,2.6-2.3,3.8c-0.4,0.6-0.2,1.3,0.4,1.7
	c0,0,0,0,0,0C67.5,24.9,68.3,24.8,68.6,24.2C68.6,24.2,68.6,24.2,68.6,24.2z M66.5,27.5c0.8-1,1.5-2.2,2.2-3.3
	c0.4-0.6,0.2-1.3-0.4-1.7s-1.3-0.2-1.7,0.4c-0.7,1-1.3,2.1-2,3.1c-0.4,0.6-0.3,1.3,0.2,1.8C65.3,28.2,66.1,28,66.5,27.5L66.5,27.5z
	 M64.3,29.1c0.9-0.2,1.7-0.8,2.1-1.6c0.4-0.6,0.3-1.3-0.2-1.8s-1.3-0.3-1.8,0.2c-0.2,0.2-0.4,0.4-0.6,0.6l0,0
	c-0.7,0.2-1.1,0.9-0.9,1.6C63.2,28.7,63.7,29.1,64.3,29.1z M62.3,27.6c0.1,0.4,0.3,0.8,0.7,1.1c0.4,0.3,0.9,0.5,1.4,0.4
	c0.7-0.1,1.2-0.7,1.1-1.4c-0.1-0.5-0.4-0.9-0.8-1l0,0c-0.3-0.6-1.1-0.8-1.7-0.5C62.5,26.5,62.2,27,62.3,27.6z M62.1,24
	c0,0.8,0,1.5,0.1,2.2c0,0.4,0.1,0.9,0.1,1.3c0.2,0.7,0.8,1.1,1.5,1s1.1-0.8,1-1.5l0,0c0-0.3-0.1-0.6-0.1-0.9c0-0.7,0-1.4-0.1-2.1
	c0-0.7-0.6-1.3-1.3-1.3C62.7,22.7,62.1,23.3,62.1,24L62.1,24L62.1,24z M61.9,20.6c0.1,0.4,0.1,0.8,0.2,1.2c0,0.7,0.1,1.5,0.1,2.2
	c0,0.7,0.6,1.3,1.3,1.3c0.7,0,1.3-0.6,1.3-1.3l0,0c0-0.8,0-1.6-0.1-2.3c0-0.5-0.1-1.1-0.2-1.6c-0.2-0.7-0.9-1-1.6-0.8
	C62.2,19.4,61.8,20,61.9,20.6L61.9,20.6z M61.9,20.5C61.9,20.5,61.9,20.5,61.9,20.5c0.1,0.8,0.7,1.3,1.4,1.2
	c0.7-0.1,1.2-0.7,1.1-1.4c0-0.1,0-0.1,0-0.2l0,0c-0.1-0.5-0.4-1-0.8-1.4c-0.4-0.4-1-0.6-1.6-0.5c-0.7,0.1-1.1,0.7-1,1.3
	C61.1,19.9,61.4,20.3,61.9,20.5L61.9,20.5z M61.3,20.5c0.3,0,0.6,0,0.9,0c0.7,0,1.2-0.5,1.2-1.1c0-0.6-0.4-1.2-1-1.2h-0.2
	c-0.6,0-1.2,0.3-1.7,0.7c-0.4,0.4-0.4,1,0,1.4C60.6,20.5,61,20.6,61.3,20.5z M60.5,21.3c0.1-0.2,0.3-0.4,0.5-0.6
	c0.1-0.1,0.2-0.2,0.3-0.2c0.5-0.1,0.9-0.7,0.8-1.2s-0.7-0.9-1.2-0.8c-0.2,0-0.3,0.1-0.4,0.2c-0.6,0.5-1.1,1.1-1.3,1.8
	c-0.2,0.4,0,0.8,0.4,1c0,0,0,0,0,0C59.9,21.7,60.3,21.6,60.5,21.3L60.5,21.3z"/>
<path d="M71.8,25.3c0,0.6,0.3,1.1,0.8,1.4c0.5,0.2,1.1,0.1,1.4-0.3c0.2-0.2,0.4-0.5,0.6-0.8c0.2-0.3,0.4-0.7,0.6-1
	c0.2-0.4,0-0.8-0.3-0.9c-0.2-0.1-0.5-0.1-0.7,0.1c-0.2,0.2-0.4,0.4-0.6,0.5l0,0C73,24,72.3,24.2,72,24.7c0,0,0,0,0,0
	C71.9,24.9,71.8,25.1,71.8,25.3z M71.8,25.3L71.8,25.3c0,0.6,0.4,1.2,1.1,1.2c0.6,0,1.2-0.4,1.2-1.1c0-0.1,0-0.1,0-0.2
	c0-0.4,0-0.7,0.1-1.1c0.1-0.7,0.1-1.3,0.2-2l0,0c0.1-0.6-0.4-1.1-0.9-1.2c-0.5-0.1-1,0.3-1.2,0.8c-0.1,0.7-0.3,1.4-0.4,2.1
	C71.9,24.4,71.8,24.9,71.8,25.3z M74.4,22.1l0.3-2.6c0-0.5-0.3-1-0.8-1.1c-0.5,0-1,0.3-1.1,0.8c-0.2,0.8-0.3,1.7-0.5,2.6
	c-0.1,0.6,0.3,1.1,0.8,1.2S74.3,22.8,74.4,22.1C74.4,22.2,74.4,22.2,74.4,22.1L74.4,22.1z M74.7,19.5c0,0,0-0.1,0-0.1
	c0-0.3-0.1-0.6-0.3-0.8c-0.2-0.2-0.6-0.3-0.8-0.2c-0.1,0-0.2,0.1-0.3,0.2c-0.2,0.2-0.4,0.4-0.4,0.7c-0.2,0.5-0.1,1.1,0.4,1.3
	s1.1,0.1,1.3-0.4C74.7,20,74.7,19.8,74.7,19.5C74.7,19.6,74.7,19.6,74.7,19.5z M72.9,19.7C72.9,19.7,72.9,19.5,72.9,19.7L72.9,19.7
	c0,0.1,0,0.2,0.1,0.3c0.1,0.4,0.5,0.7,0.9,0.6c0,0,0,0,0.1,0c0.2-0.1,0.4-0.2,0.5-0.4l0.1-0.3v-0.1l0,0c0.4-0.4,0.4-1,0-1.4
	c-0.4-0.4-1-0.4-1.4,0c-0.1,0.1-0.2,0.3-0.3,0.5C72.8,19.1,72.8,19.4,72.9,19.7L72.9,19.7z"/>
<path d="M77.2,15.5L77.2,15.5c0.2,0.2,0.6,0.2,0.9,0c0,0,0,0,0,0c0.2-0.2,0.3-0.5,0.1-0.7c-0.2-0.4-0.4-0.8-0.4-1.3
	c0-0.2,0-0.3,0.1-0.5c0.2-0.4,0.1-0.8-0.3-1.1c-0.3-0.2-0.6-0.1-0.9,0.1c-0.5,0.5-0.7,1.2-0.5,1.8C76.4,14.5,76.7,15.1,77.2,15.5z"
	/>
<path d="M77,29c0.5,1.1,1.6,1.8,2.8,1.7c0.8,0,1.4-0.6,1.4-1.4c0-0.8-0.6-1.4-1.4-1.4l0,0c-0.6,0-1.3,0-1.9-0.1
	c-0.5-0.1-0.9,0.2-1,0.7C76.9,28.6,76.9,28.8,77,29z M79.8,30.7c0.9,0,1.9-0.1,2.8-0.3c0.8-0.1,1.3-0.9,1.2-1.6s-0.9-1.3-1.6-1.2
	l0,0c-0.8,0.1-1.5,0.2-2.3,0.2c-0.8,0-1.4,0.6-1.4,1.4C78.5,30.1,79.1,30.7,79.8,30.7L79.8,30.7z M82.7,30.4
	c0.4-0.1,0.9-0.2,1.3-0.3c0.4-0.1,0.7-0.3,1-0.5c0.6-0.5,0.7-1.3,0.3-2c-0.5-0.6-1.3-0.7-2-0.3l0,0c0,0,0.1,0,0,0L83,27.5
	c-0.3,0.1-0.6,0.2-1,0.2c-0.8,0.1-1.3,0.9-1.1,1.6c0.1,0.8,0.9,1.3,1.6,1.1L82.7,30.4z M85,29.7c0.7-0.5,1-1.4,0.8-2.2
	c-0.1-0.8-0.8-1.3-1.6-1.2c-0.7,0.1-1.2,0.7-1.2,1.4l0,0c-0.5,0.5-0.5,1.4,0,2C83.6,30.1,84.4,30.2,85,29.7z M82.6,27
	c0.2,0.2,0.4,0.5,0.4,0.8c0.1,0.8,0.8,1.3,1.5,1.2s1.3-0.8,1.2-1.5l0,0c-0.1-0.8-0.5-1.5-1-2.2c-0.5-0.6-1.4-0.7-1.9-0.2
	C82.3,25.6,82.2,26.4,82.6,27L82.6,27z M81.2,25.4c0.5,0.5,1,1,1.5,1.5c0.5,0.6,1.4,0.7,1.9,0.2c0.6-0.5,0.7-1.3,0.2-1.9l0,0
	c-0.5-0.7-1.2-1.3-1.8-1.9c-0.6-0.5-1.4-0.5-1.9,0.1C80.6,24,80.6,24.9,81.2,25.4z M79.1,23.1c0.6,0.8,1.3,1.6,2.1,2.3
	c0.6,0.5,1.4,0.5,1.9-0.1c0.5-0.6,0.5-1.4-0.1-2c-0.6-0.6-1.2-1.2-1.8-1.9c-0.5-0.6-1.3-0.7-1.9-0.2C78.7,21.7,78.6,22.5,79.1,23.1
	C79.1,23.1,79.1,23.1,79.1,23.1L79.1,23.1z M77.9,20c0.1,1.1,0.5,2.2,1.2,3.1c0.4,0.6,1.3,0.8,1.9,0.4s0.8-1.3,0.4-1.9
	c0-0.1-0.1-0.1-0.1-0.2l0,0c-0.4-0.4-0.6-1-0.7-1.5c0-0.7-0.6-1.3-1.4-1.3C78.4,18.7,77.9,19.3,77.9,20L77.9,20L77.9,20z M77.9,20
	L77.9,20c0,0.7,0.6,1.3,1.4,1.3c0.7,0,1.3-0.6,1.3-1.4l0,0c0-0.6,0-1.1,0.2-1.6c0.2-0.7-0.1-1.4-0.8-1.7c-0.7-0.2-1.4,0.1-1.7,0.8
	C78,18.3,77.8,19.2,77.9,20z M80.8,18.3c0.1-0.2,0.2-0.4,0.2-0.7c0-0.1,0.1-0.2,0.2-0.2c0.5-0.5,0.5-1.3-0.1-1.8
	c-0.5-0.5-1.3-0.5-1.8,0.1c-0.5,0.5-0.8,1.1-1,1.8c-0.3,0.7,0.1,1.4,0.7,1.7c0.7,0.3,1.4-0.1,1.7-0.7C80.7,18.4,80.7,18.4,80.8,18.3
	L80.8,18.3z M81.2,17.4c0.3-0.3,0.6-0.5,0.9-0.7c0.6-0.4,0.8-1.1,0.4-1.7c-0.4-0.6-1.1-0.8-1.7-0.4c-0.5,0.3-1,0.7-1.4,1.1
	c-0.5,0.5-0.5,1.3,0.1,1.8C79.9,18,80.7,17.9,81.2,17.4L81.2,17.4L81.2,17.4z M82,16.7c0.2-0.2,0.5-0.2,0.8-0.2
	c0.6,0,1.2-0.4,1.2-1.1c0-0.5-0.3-1-0.9-1.2c-0.8-0.2-1.7-0.1-2.5,0.4c-0.6,0.3-0.9,1.1-0.6,1.7c0.3,0.6,1.1,0.9,1.7,0.6
	C81.9,16.8,81.9,16.8,82,16.7L82,16.7z M82.8,16.5c0.1,0,0.2,0.1,0.3,0.2c0.3,0.3,0.5,0.6,0.6,1c0.2,0.4,0.6,0.7,1.1,0.5
	c0.4-0.1,0.6-0.5,0.6-0.9c-0.1-0.7-0.3-1.3-0.6-1.9c-0.3-0.6-0.9-1-1.5-1.2l0,0c-0.6-0.2-1.2,0.2-1.4,0.8s0.2,1.2,0.8,1.4
	c0,0,0,0,0.1,0C82.7,16.5,82.7,16.5,82.8,16.5z"/>
<path d="M17.7,27.4c1.2-1,2.1-2.2,2.8-3.6c0.2-0.4,0-0.9-0.5-1c-0.2-0.1-0.5-0.1-0.8,0.1c-1.1,0.8-2.2,1.7-3.3,2.6
	c-0.6,0.4-0.7,1.2-0.3,1.8s1.2,0.7,1.8,0.3C17.6,27.5,17.6,27.5,17.7,27.4z M14.1,30.3c1.3-0.9,2.4-1.8,3.6-2.8
	c0.5-0.5,0.5-1.3,0-1.8c-0.5-0.4-1.2-0.5-1.7-0.1c-1,0.9-2.1,1.8-3.3,2.6c-0.6,0.4-0.8,1.2-0.4,1.8c0,0,0,0,0,0
	C12.7,30.5,13.5,30.7,14.1,30.3C14.1,30.3,14.1,30.3,14.1,30.3L14.1,30.3z M11.6,31.8c0.9-0.4,1.7-0.9,2.5-1.5
	c0.6-0.4,0.7-1.2,0.3-1.8c-0.4-0.6-1.2-0.7-1.8-0.3l0,0c-0.7,0.5-1.4,0.9-2.2,1.3c-0.6,0.3-0.9,1.1-0.5,1.8
	C10.3,31.7,11,32,11.6,31.8L11.6,31.8z M8.6,32.3c1,0,2-0.2,3-0.5c0.6-0.4,0.8-1.2,0.5-1.8c-0.3-0.5-1-0.8-1.6-0.6
	c-0.2,0.1-0.4,0.2-0.7,0.2c-0.4,0.1-0.8,0.1-1.2,0.1c-0.7,0-1.3,0.5-1.4,1.2s0.5,1.3,1.2,1.4C8.5,32.3,8.6,32.3,8.6,32.3L8.6,32.3z
	 M5.9,32c0.4,0.1,0.8,0.2,1.2,0.2c0.5,0,1,0,1.5,0c0.7-0.1,1.2-0.7,1.2-1.4c-0.1-0.6-0.6-1.1-1.2-1.2c-0.4,0-0.8,0-1.2,0
	c-0.2,0-0.4,0-0.5,0c-0.7-0.2-1.4,0.2-1.6,0.9C5,31.1,5.3,31.8,5.9,32L5.9,32z M4.2,30.5c0.4,0.7,1,1.2,1.7,1.5
	c0.6,0.3,1.4,0,1.7-0.6c0.3-0.6,0-1.4-0.6-1.7c-0.1,0-0.1-0.1-0.2-0.1l0,0c-0.2-0.1-0.3-0.2-0.3-0.4c-0.3-0.6-1.1-0.8-1.8-0.5
	C4.1,29.1,3.9,29.9,4.2,30.5z M3.7,28.1c0,0.8,0.2,1.7,0.6,2.4C4.6,31.1,5.4,31.3,6,31s0.8-1.1,0.5-1.8l0,0
	c-0.2-0.4-0.3-0.8-0.2-1.2c-0.1-0.7-0.7-1.2-1.4-1.2C4.2,27,3.7,27.5,3.7,28.1L3.7,28.1z M3.7,28.1L3.7,28.1
	c-0.1,0.7,0.5,1.3,1.2,1.4c0.7,0.1,1.3-0.5,1.4-1.2c0-0.1,0-0.2,0-0.2l0,0c0-0.8,0-1.6,0.1-2.5c0.1-0.7-0.4-1.3-1.1-1.4
	c-0.7-0.1-1.3,0.4-1.4,1.1C3.7,26.3,3.7,27.2,3.7,28.1z M6.3,25.6c0.1-1.1,0.3-2.1,0.6-3.1c0.2-0.7-0.2-1.4-0.8-1.6
	c-0.7-0.2-1.4,0.2-1.6,0.8l0,0c-0.4,1.2-0.6,2.4-0.8,3.6c-0.1,0.7,0.4,1.3,1.1,1.4C5.6,26.8,6.2,26.3,6.3,25.6L6.3,25.6z M6.9,22.5
	c0.4-1.2,0.8-2.4,1.3-3.5c0.4-0.6,0.2-1.4-0.4-1.7c-0.6-0.4-1.4-0.2-1.7,0.4C6.1,17.8,6,17.9,6,18l0,0c-0.6,1.2-1,2.5-1.4,3.8
	c-0.2,0.6,0.1,1.4,0.7,1.6c0.6,0.2,1.4-0.1,1.6-0.7C6.9,22.6,6.9,22.5,6.9,22.5L6.9,22.5z M8.3,19c0.5-1.2,1.1-2.3,1.7-3.4
	c0.4-0.6,0.1-1.4-0.5-1.7s-1.4-0.1-1.7,0.5l0,0l0,0c-0.7,1.2-1.3,2.4-1.8,3.6c-0.4,0.6-0.2,1.4,0.4,1.7C7,20,7.8,19.8,8.1,19.2
	C8.2,19.1,8.2,19,8.3,19L8.3,19z M10,15.6c0.6-1,1.3-2,2-3c0.5-0.5,0.5-1.3,0-1.8c-0.5-0.5-1.3-0.5-1.8,0c-0.1,0.1-0.2,0.2-0.2,0.3
	l0,0c-0.8,1.1-1.5,2.2-2.2,3.3c-0.3,0.6-0.1,1.4,0.5,1.7C9,16.3,9.7,16.1,10,15.6L10,15.6z M12,12.6c0.6-0.8,1.3-1.7,2-2.4
	c0.5-0.5,0.5-1.3,0-1.8c-0.5-0.5-1.3-0.5-1.8,0C11.4,9.2,10.7,10,10,11c-0.3,0.6-0.1,1.4,0.5,1.7C11,13,11.6,12.9,12,12.6L12,12.6z
	 M14,10.1c0.5-0.6,1.1-1.2,1.8-1.7C16.3,8,16.4,7.2,16,6.6S14.7,6,14.1,6.4l0,0c-0.7,0.6-1.4,1.2-2,1.9c-0.5,0.5-0.4,1.3,0.1,1.8
	S13.6,10.6,14,10.1L14,10.1z M15.8,8.4c0.5-0.4,1-0.8,1.5-1.1c0.6-0.3,0.9-1.1,0.5-1.7s-1.1-0.9-1.8-0.5c-0.7,0.4-1.3,0.8-1.9,1.3
	c-0.6,0.5-0.6,1.3-0.2,1.8C14.5,8.7,15.3,8.8,15.8,8.4L15.8,8.4L15.8,8.4z M17.3,7.3C17.7,7.1,18.2,7,18.7,7
	c0.7-0.1,1.2-0.7,1.1-1.3c-0.1-0.6-0.5-1.1-1.1-1.1c-0.9-0.1-1.8,0.1-2.7,0.6c-0.6,0.3-0.9,1.1-0.6,1.7c0.3,0.6,1.1,0.9,1.7,0.6
	C17.2,7.4,17.2,7.4,17.3,7.3L17.3,7.3z M18.7,7c0.4-0.1,0.9,0,1.3,0.2c0.5,0.3,1.1,0.1,1.4-0.4c0.3-0.4,0.2-1-0.2-1.3
	c-0.7-0.6-1.6-1-2.5-1c-0.7-0.1-1.3,0.4-1.4,1.1c-0.1,0.7,0.4,1.3,1.1,1.4c0.1,0,0.1,0,0.2,0L18.7,7z M19.9,7.2
	c0.1,0.1,0.3,0.2,0.4,0.3l0.1,0.1c0,0,0-0.1,0,0C20.6,8,21.1,8.2,21.6,8c0.4-0.2,0.6-0.6,0.5-1C22,6.5,21.7,6,21.2,5.6
	c-0.4-0.4-1.1-0.4-1.5,0c-0.4,0.4-0.4,1.1,0,1.5C19.8,7.1,19.9,7.1,19.9,7.2L19.9,7.2z M20.4,7.5c0,0.1,0.1,0.2,0.1,0.3
	c0,0.2,0,0.4,0.1,0.7c0,0.4,0.3,0.8,0.7,0.8c0.4,0,0.8-0.3,0.8-0.7c0.1-0.5,0.1-1,0-1.5c-0.1-0.5-0.5-0.8-1-0.8
	c-0.5,0.1-0.8,0.5-0.8,1C20.4,7.4,20.4,7.4,20.4,7.5L20.4,7.5z M21.7,10.3c0.3-0.5,0.4-1.1,0.5-1.7c0.1-0.4-0.2-0.8-0.6-0.9
	c-0.4-0.1-0.8,0.2-0.9,0.6c0,0,0,0.1,0,0.1c0,0,0,0.1,0,0.1c0,0.4,0,0.9-0.2,1.3c-0.1,0.3,0,0.7,0.4,0.9c0,0,0,0,0,0
	C21.2,10.7,21.5,10.6,21.7,10.3z M20,11.8c0.7-0.3,1.3-0.8,1.6-1.6c0.2-0.3,0-0.7-0.3-0.9c-0.3-0.2-0.7,0-0.9,0.3l0,0
	c-0.1,0.4-0.4,0.8-0.8,0.9c-0.3,0.1-0.5,0.5-0.4,0.8C19.4,11.7,19.7,11.9,20,11.8L20,11.8z"/>
</svg>
