<?xml version="1.0" encoding="utf-8"?>
<!-- Generator: Adobe Illustrator 27.0.0, SVG Export Plug-In . SVG Version: 6.00 Build 0)  -->
<svg version="1.1"
	 id="图层_1" xmlns:inkscape="http://www.inkscape.org/namespaces/inkscape" xmlns:sodipodi="http://sodipodi.sourceforge.net/DTD/sodipodi-0.dtd" xmlns:svg="http://www.w3.org/2000/svg"
	 xmlns="http://www.w3.org/2000/svg" xmlns:xlink="http://www.w3.org/1999/xlink" x="0px" y="0px" viewBox="0 0 145.7 145.7"
	 enable-background="new 0 0 145.7 145.7" xml:space="preserve">
<sodipodi:namedview  bordercolor="#000000" borderopacity="0.25" id="namedview289" inkscape:current-layer="图层_1" inkscape:cx="59.220193" inkscape:cy="94.045202" inkscape:deskcolor="#d1d1d1" inkscape:pagecheckerboard="0" inkscape:pageopacity="0.0" inkscape:showpageshadow="2" inkscape:window-height="829" inkscape:window-maximized="1" inkscape:window-width="1440" inkscape:window-x="-8" inkscape:window-y="-8" inkscape:zoom="2.8284271" pagecolor="#ffffff" showgrid="false">
	</sodipodi:namedview>
<g id="g54">
	<g id="g12">
		<g>
			<defs>
				<rect id="SVGID_1_" x="-44.9" y="-119.1" width="481.9" height="680.3"/>
			</defs>
			<clipPath id="SVGID_00000007423327024679258160000001155912261025810840_">
				<use xlink:href="#SVGID_1_"  overflow="visible"/>
			</clipPath>
			
				<path id="path10" clip-path="url(#SVGID_00000007423327024679258160000001155912261025810840_)" fill="none" stroke="#FFFFFF" stroke-width="6" stroke-miterlimit="10" d="
				M437-83.1"/>
		</g>
	</g>
	<g id="g22">
		<g>
			<defs>
				<rect id="SVGID_00000132777238843006325350000009131356380549748414_" x="-44.9" y="-119.1" width="481.9" height="680.3"/>
			</defs>
			<clipPath id="SVGID_00000183958885212113218540000011488408918954268595_">
				<use xlink:href="#SVGID_00000132777238843006325350000009131356380549748414_"  overflow="visible"/>
			</clipPath>
			
				<path id="path20" clip-path="url(#SVGID_00000183958885212113218540000011488408918954268595_)" fill="none" stroke="#9B0000" stroke-width="1.002" stroke-miterlimit="10" d="
				M437-85.6"/>
		</g>
	</g>
	<g id="g32">
		<g>
			<defs>
				<rect id="SVGID_00000054256466670978073750000006444842879187987358_" x="-44.9" y="-119.1" width="481.9" height="680.3"/>
			</defs>
			<clipPath id="SVGID_00000149375679391342054280000011208736454799907505_">
				<use xlink:href="#SVGID_00000054256466670978073750000006444842879187987358_"  overflow="visible"/>
			</clipPath>
			
				<path id="path30" clip-path="url(#SVGID_00000149375679391342054280000011208736454799907505_)" fill="none" stroke="#9B0000" stroke-width="3" stroke-miterlimit="10" d="
				M437-81.6"/>
		</g>
	</g>
	<g id="g42">
		<g>
			<defs>
				<rect id="SVGID_00000120531830655184536360000007013452025998054324_" x="-44.9" y="-119.1" width="481.9" height="680.3"/>
			</defs>
			<clipPath id="SVGID_00000170249041214671684820000017219137374136560823_">
				<use xlink:href="#SVGID_00000120531830655184536360000007013452025998054324_"  overflow="visible"/>
			</clipPath>
			
				<path id="path40" clip-path="url(#SVGID_00000170249041214671684820000017219137374136560823_)" fill="none" stroke="#9B0000" stroke-width="3" stroke-miterlimit="10" d="
				M437,526.8"/>
		</g>
	</g>
	<g id="g52">
		<g>
			<defs>
				<rect id="SVGID_00000102540737070994370820000017029757185705310365_" x="-44.9" y="-119.1" width="481.9" height="680.3"/>
			</defs>
			<clipPath id="SVGID_00000075876680866940686210000007220634029867246976_">
				<use xlink:href="#SVGID_00000102540737070994370820000017029757185705310365_"  overflow="visible"/>
			</clipPath>
			
				<path id="path50" clip-path="url(#SVGID_00000075876680866940686210000007220634029867246976_)" fill="none" stroke="#9B0000" stroke-width="1.002" stroke-miterlimit="10" d="
				M437,530.8"/>
		</g>
	</g>
</g>
<g id="g286">
	<g id="g64">
		<g>
			<defs>
				<rect id="SVGID_00000028292748478917330190000003708977491426942603_" x="-44.9" y="-119.1" width="481.9" height="680.3"/>
			</defs>
			<clipPath id="SVGID_00000051345681482258747380000012438271143442915513_">
				<use xlink:href="#SVGID_00000028292748478917330190000003708977491426942603_"  overflow="visible"/>
			</clipPath>
			<path id="path62" clip-path="url(#SVGID_00000051345681482258747380000012438271143442915513_)" fill="#9A0000" d="M48,135.1
				l-0.1,0.1c-0.6-0.3-1.3-0.7-2.2-1.1c-0.9-0.4-1.8-0.8-2.7-1.2l0-0.1l0.2-0.4l0.1,0c0.2,0.1,0.5,0.1,0.7,0.2
				c0.4,0.1,0.7,0.2,0.8,0.2c0.1,0,0.2-0.1,0.3-0.2c0.2-0.2,0.6-1,1.2-2.4l0.7-1.6c0.2-0.5,0.5-1.1,0.8-1.9l0.2-0.5
				c0.1-0.2,0.1-0.3,0-0.4c0,0-0.2,0-0.5,0c-0.7,0-1.3,0-1.9,0l-0.1-0.1c0.1-0.3,0.2-0.6,0.2-0.9l0-0.1c1.4,0.2,2.9,0.4,4.7,0.5
				l0.1,0.2c-0.1,0.2-0.3,0.6-0.6,1.1c-0.1,0.2-0.3,0.7-0.7,1.5l-1.2,2.6c-0.8,1.8-1.2,2.9-1.2,3c0,0.1,0,0.2,0.1,0.3
				c0.1,0.1,0.5,0.3,1.2,0.7l0.1,0.1L48,135.1z"/>
		</g>
	</g>
	<g id="g74">
		<g>
			<defs>
				<rect id="SVGID_00000094618758932446028840000008619095555075453584_" x="-44.9" y="-119.1" width="481.9" height="680.3"/>
			</defs>
			<clipPath id="SVGID_00000121980933857068715320000010665783202087813309_">
				<use xlink:href="#SVGID_00000094618758932446028840000008619095555075453584_"  overflow="visible"/>
			</clipPath>
			<path id="path72" clip-path="url(#SVGID_00000121980933857068715320000010665783202087813309_)" fill="#9A0000" d="M66.6,132
				c0.1-0.5,0-0.9-0.3-1.2c-0.3-0.3-0.7-0.5-1.2-0.6c-0.5-0.1-0.9,0-1.2,0.2c-0.3,0.2-0.5,0.5-0.5,0.9c0,0.4,0.1,0.7,0.4,1.1
				c0.2,0.2,0.4,0.4,0.7,0.6c0.1,0.1,0.3,0.2,0.5,0.3l0.4,0.2C66.1,133.2,66.5,132.7,66.6,132 M65.9,137.2c0.1-0.7-0.2-1.3-0.8-1.7
				c-0.4-0.3-0.9-0.6-1.3-0.8l-0.2-0.1c-0.8,0.4-1.3,1-1.4,1.8c-0.1,0.5,0,0.8,0.1,1.1c0.3,0.7,0.9,1.1,1.6,1.2c0.5,0.1,1,0,1.3-0.3
				C65.7,138.1,65.9,137.8,65.9,137.2 M67.8,136.6c-0.1,0.6-0.2,1-0.5,1.4c-0.5,0.8-1.3,1.2-2.3,1.4c-0.4,0.1-0.9,0.1-1.5,0
				c-1.2-0.2-2.1-0.7-2.6-1.6c-0.2-0.4-0.3-0.9-0.2-1.5c0.1-0.7,0.4-1.3,1-1.7c0.2-0.1,0.6-0.3,1.2-0.5c-1-0.7-1.4-1.5-1.3-2.5
				c0.2-1.1,0.8-1.9,2-2.2c0.5-0.2,1.1-0.2,1.7-0.1c0.9,0.1,1.6,0.4,2.1,0.9c0.4,0.5,0.6,1,0.6,1.6c-0.1,0.9-0.7,1.5-1.8,1.9
				c0.7,0.4,1.2,0.8,1.4,1.3C67.8,135.5,67.9,136,67.8,136.6"/>
		</g>
	</g>
	<g id="g84">
		<g>
			<defs>
				<rect id="SVGID_00000117665632177858535300000003814063324627580808_" x="-44.9" y="-119.1" width="481.9" height="680.3"/>
			</defs>
			<clipPath id="SVGID_00000114786869019370803750000013006452889582781856_">
				<use xlink:href="#SVGID_00000117665632177858535300000003814063324627580808_"  overflow="visible"/>
			</clipPath>
			<path id="path82" clip-path="url(#SVGID_00000114786869019370803750000013006452889582781856_)" fill="#9A0000" d="M82.6,132.5
				c-0.1-0.9-0.4-1.5-0.7-1.9c-0.3-0.4-0.8-0.6-1.3-0.5c-0.6,0.1-1,0.4-1.1,1.1c-0.1,0.3-0.1,0.7,0,1.2c0.1,0.7,0.3,1.3,0.7,1.6
				c0.3,0.3,0.8,0.5,1.2,0.4c0.6-0.1,1-0.4,1.2-0.9C82.6,133.2,82.6,132.9,82.6,132.5 M84.8,133c0.2,1.3,0.1,2.4-0.3,3.3
				c-0.4,0.9-1,1.8-1.8,2.4c-0.8,0.7-1.8,1.1-2.9,1.2l-0.7-0.4l0.2-0.3c0.2,0,0.4,0,0.6,0c0.8-0.1,1.5-0.5,2.1-1.1
				c0.2-0.3,0.4-0.6,0.6-1c0.3-0.6,0.4-1.5,0.3-2.7c-0.7,0.8-1.1,1.2-1.2,1.2c-0.3,0.2-0.7,0.3-1.1,0.3c-0.7,0.1-1.3-0.1-1.8-0.5
				c-0.6-0.4-0.9-1.1-1-2c-0.2-1.4,0.2-2.5,1.2-3.3c0.5-0.4,1.1-0.6,1.8-0.7c1.4-0.2,2.5,0.3,3.3,1.4C84.4,131.3,84.6,132,84.8,133"
				/>
		</g>
	</g>
	<g id="g94">
		<g>
			<defs>
				<rect id="SVGID_00000161610767990072734280000004593761098950706607_" x="-44.9" y="-119.1" width="481.9" height="680.3"/>
			</defs>
			<clipPath id="SVGID_00000135680237387772799170000012330204097620491454_">
				<use xlink:href="#SVGID_00000161610767990072734280000004593761098950706607_"  overflow="visible"/>
			</clipPath>
			<path id="path92" clip-path="url(#SVGID_00000135680237387772799170000012330204097620491454_)" fill="#9A0000" d="M100.4,131.5
				c-0.3-0.6-0.8-1-1.6-1c-0.5,0-1,0-1.6,0l-0.2,0c-0.5,0.8-0.6,1.6-0.3,2.3c0.2,0.4,0.4,0.7,0.7,0.9c0.6,0.4,1.3,0.5,2,0.2
				c0.5-0.2,0.8-0.5,1-1C100.6,132.4,100.6,131.9,100.4,131.5 M98.2,126.6c-0.2-0.4-0.5-0.7-0.9-0.9s-0.8-0.1-1.3,0.1
				c-0.4,0.2-0.7,0.5-0.9,0.8c-0.1,0.3-0.1,0.7,0,1c0.2,0.3,0.4,0.6,0.9,0.7c0.2,0.1,0.5,0.1,0.9,0.1c0.1,0,0.3,0,0.6,0l0.5,0
				C98.4,127.9,98.5,127.3,98.2,126.6 M101.7,130c0.2,0.5,0.3,1,0.3,1.5c-0.1,0.9-0.5,1.7-1.2,2.4c-0.3,0.3-0.7,0.5-1.2,0.8
				c-1.1,0.5-2.1,0.5-3.1,0c-0.4-0.2-0.7-0.6-1-1.1c-0.3-0.7-0.3-1.3,0-1.9c0.1-0.2,0.4-0.6,0.8-1.1c-1.2-0.1-2-0.6-2.4-1.5
				c-0.4-1-0.3-2,0.6-2.9c0.4-0.4,0.8-0.7,1.4-1c0.8-0.4,1.6-0.5,2.2-0.3c0.6,0.2,1.1,0.5,1.3,1.1c0.3,0.8,0.2,1.7-0.6,2.6
				c0.8,0,1.4,0.1,1.9,0.3C101.1,129,101.4,129.4,101.7,130"/>
		</g>
	</g>
	<g id="g104">
		<g>
			<defs>
				<rect id="SVGID_00000081608190046061370480000005052759482842604693_" x="-44.9" y="-119.1" width="481.9" height="680.3"/>
			</defs>
			<clipPath id="SVGID_00000164488162953476137200000005278057672949330611_">
				<use xlink:href="#SVGID_00000081608190046061370480000005052759482842604693_"  overflow="visible"/>
			</clipPath>
			<path id="path102" clip-path="url(#SVGID_00000164488162953476137200000005278057672949330611_)" fill="#9A0000" d="M45.4,137.8
				c-8.4-3.6-15.9-8.6-22.4-15.1s-11.6-14-15.1-22.4c-3.7-8.7-5.5-17.9-5.5-27.4s1.9-18.7,5.5-27.4c3.6-8.4,8.6-15.9,15.1-22.4
				S37,11.5,45.4,8c8.7-3.7,17.9-5.5,27.4-5.5S91.6,4.3,100.3,8c8.4,3.6,15.9,8.6,22.4,15.1s11.6,14,15.1,22.4
				c3.7,8.7,5.5,17.9,5.5,27.4s-1.9,18.7-5.5,27.4c-3.6,8.4-8.6,15.9-15.1,22.4c-6.5,6.5-14,11.6-22.4,15.1
				c-8.7,3.7-17.9,5.5-27.4,5.5S54.1,141.4,45.4,137.8 M44.5,5.7C35.8,9.4,28,14.6,21.3,21.3C14.6,28,9.4,35.8,5.7,44.5
				C1.9,53.5,0,63,0,72.9s1.9,19.4,5.7,28.4c3.7,8.7,8.9,16.5,15.6,23.2c6.7,6.7,14.5,11.9,23.1,15.6c9,3.8,18.5,5.7,28.4,5.7
				s19.4-1.9,28.4-5.7c8.7-3.7,16.5-8.9,23.2-15.6c6.7-6.7,11.9-14.5,15.6-23.2c3.8-9,5.7-18.5,5.7-28.4c0-9.8-1.9-19.4-5.7-28.4
				c-3.7-8.7-8.9-16.5-15.6-23.2S109.9,9.4,101.2,5.7C92.2,1.9,82.7,0,72.8,0S53.5,1.9,44.5,5.7"/>
		</g>
	</g>
	<g id="g114">
		<g>
			<defs>
				<rect id="SVGID_00000176032136973761846120000012321200929801430169_" x="-44.9" y="-119.1" width="481.9" height="680.3"/>
			</defs>
			<clipPath id="SVGID_00000043438125000369833410000011990739184453113749_">
				<use xlink:href="#SVGID_00000176032136973761846120000012321200929801430169_"  overflow="visible"/>
			</clipPath>
			<path id="path112" clip-path="url(#SVGID_00000043438125000369833410000011990739184453113749_)" fill="#9A0000" d="M52.5,121
				c-6.2-2.6-11.8-6.4-16.6-11.2c-4.8-4.8-8.6-10.4-11.2-16.6c-2.7-6.4-4.1-13.3-4.1-20.3s1.4-13.9,4.1-20.3
				c2.6-6.2,6.4-11.8,11.2-16.6c4.8-4.8,10.4-8.6,16.6-11.2c6.4-2.7,13.3-4.1,20.3-4.1c7.1,0,13.9,1.4,20.3,4.1
				c6.2,2.6,11.8,6.4,16.6,11.2s8.6,10.4,11.2,16.6c2.7,6.4,4.1,13.3,4.1,20.3c0,7.1-1.4,13.9-4.1,20.3c-2.6,6.2-6.4,11.8-11.2,16.6
				c-4.8,4.8-10.4,8.6-16.6,11.2c-6.4,2.7-13.3,4.1-20.3,4.1C65.8,125.1,58.9,123.7,52.5,121 M51.9,23.2
				c-6.4,2.7-12.2,6.6-17.1,11.5c-5,5-8.8,10.7-11.5,17.1c-2.8,6.6-4.2,13.7-4.2,21c0,7.3,1.4,14.3,4.2,21
				c2.7,6.4,6.6,12.2,11.5,17.1c5,4.9,10.7,8.8,17.1,11.6c6.6,2.8,13.7,4.2,21,4.2c7.3,0,14.3-1.4,21-4.2
				c6.4-2.7,12.2-6.6,17.1-11.6c4.9-4.9,8.8-10.7,11.5-17.1c2.8-6.6,4.2-13.7,4.2-21c0-7.3-1.4-14.3-4.2-21
				c-2.7-6.4-6.6-12.2-11.5-17.1c-4.9-5-10.7-8.8-17.1-11.5c-6.6-2.8-13.7-4.2-21-4.2C65.6,19,58.5,20.4,51.9,23.2"/>
		</g>
	</g>
	<g id="g124">
		<g>
			<defs>
				<rect id="SVGID_00000078005694785305874670000000403964369166842043_" x="-44.9" y="-119.1" width="481.9" height="680.3"/>
			</defs>
			<clipPath id="SVGID_00000159440885404016494700000002927065729466366604_">
				<use xlink:href="#SVGID_00000078005694785305874670000000403964369166842043_"  overflow="visible"/>
			</clipPath>
			<path id="path122" clip-path="url(#SVGID_00000159440885404016494700000002927065729466366604_)" fill="#9A0000" d="M12.3,93.8
				c-0.7,0.3-1.1,0.6-1.3,1c-0.2,0.4-0.2,0.9,0.1,1.6l0.2,0.5l3.9-1.5l-0.1-0.3c-0.3-0.7-0.6-1.2-1.1-1.4
				C13.5,93.6,13,93.6,12.3,93.8 M11.1,91.5c0.5-0.2,1-0.3,1.4-0.2c0.4,0.1,0.9,0.2,1.2,0.5c0.4,0.3,0.7,0.7,1,1.1
				c0.3,0.4,0.6,1,0.8,1.6l0.3,0.7l2.5-1c0.1-0.1,0.3-0.1,0.4-0.2s0.1-0.2,0.1-0.4c0-0.1,0-0.2,0-0.5c0-0.2-0.1-0.4-0.1-0.5l0.5-0.2
				l1.9,4.9l-0.5,0.2c-0.1-0.1-0.1-0.3-0.2-0.5c-0.1-0.2-0.2-0.3-0.2-0.4c-0.1-0.1-0.2-0.2-0.4-0.2c-0.1,0-0.3,0-0.4,0.1l-6.3,2.4
				c-0.1,0.1-0.3,0.1-0.4,0.2c-0.1,0.1-0.1,0.2-0.1,0.4c0,0.1,0,0.3,0.1,0.5c0,0.2,0.1,0.4,0.1,0.5l-0.5,0.2l-1.9-4.9
				c-0.4-1.2-0.6-2.1-0.4-2.8C9.8,92.3,10.3,91.8,11.1,91.5"/>
		</g>
	</g>
	<g id="g134">
		<g>
			<defs>
				<rect id="SVGID_00000036215896647983129590000015438398901968533170_" x="-44.9" y="-119.1" width="481.9" height="680.3"/>
			</defs>
			<clipPath id="SVGID_00000152231379636477104720000008259608425994784675_">
				<use xlink:href="#SVGID_00000036215896647983129590000015438398901968533170_"  overflow="visible"/>
			</clipPath>
			<path id="path132" clip-path="url(#SVGID_00000152231379636477104720000008259608425994784675_)" fill="#9A0000" d="M8.5,76.4
				L8.6,77c-0.4,0.2-0.7,0.4-1,0.8c-0.3,0.4-0.5,0.7-0.6,1c0,0.1,0,0.3,0,0.6s0,0.4,0.1,0.6l0.2,1.4l3.7-0.4l-0.1-1
				c0-0.2-0.1-0.5-0.2-0.7s-0.2-0.4-0.4-0.5c-0.1-0.1-0.3-0.2-0.6-0.2s-0.5-0.1-0.7-0.1l-0.1-0.5l4-0.5l0.1,0.5
				c-0.2,0.1-0.4,0.1-0.7,0.3c-0.3,0.1-0.5,0.3-0.6,0.4c-0.1,0.2-0.2,0.3-0.3,0.6c0,0.2,0,0.4,0,0.7l0.1,1l2.8-0.3
				c0.3,0,0.5-0.1,0.7-0.1c0.2-0.1,0.3-0.2,0.4-0.3c0.1-0.1,0.1-0.3,0.1-0.5c0-0.2,0-0.5-0.1-0.8c0-0.2,0-0.3-0.1-0.6
				s-0.1-0.4-0.1-0.6c0-0.2-0.1-0.4-0.2-0.5c-0.1-0.2-0.1-0.3-0.2-0.3c-0.2-0.2-0.6-0.4-1.1-0.6s-0.8-0.3-1.1-0.4l-0.1-0.5l3-0.2
				l1,8.9l-0.5,0.1c0-0.1-0.1-0.3-0.1-0.5c-0.1-0.2-0.1-0.4-0.1-0.4c-0.1-0.2-0.2-0.3-0.3-0.3c-0.1-0.1-0.3-0.1-0.4,0l-6.7,0.8
				c-0.2,0-0.3,0.1-0.4,0.1c-0.1,0.1-0.2,0.2-0.2,0.4c0,0.1-0.1,0.3-0.1,0.5s0,0.4,0,0.5l-0.5,0.1l-1-8.4L8.5,76.4z"/>
		</g>
	</g>
	<g id="g144">
		<g>
			<defs>
				<rect id="SVGID_00000172419169614812820060000011720907129730883770_" x="-44.9" y="-119.1" width="481.9" height="680.3"/>
			</defs>
			<clipPath id="SVGID_00000138573703377807717440000004589599775163471513_">
				<use xlink:href="#SVGID_00000172419169614812820060000011720907129730883770_"  overflow="visible"/>
			</clipPath>
			<path id="path142" clip-path="url(#SVGID_00000138573703377807717440000004589599775163471513_)" fill="#9A0000" d="M17.1,58.7
				l-0.5,3.8c-0.9,0.4-1.8,0.8-2.4,1.2s-1.5,0.8-2.5,1.4l-0.1,0.3l3,0.4c0.2,0,0.3,0,0.4,0s0.2-0.1,0.3-0.3c0.1-0.1,0.1-0.2,0.2-0.3
				c0.1-0.2,0.1-0.3,0.1-0.5l0.5,0.1l-0.7,5.1L15,69.8c0-0.1,0-0.3,0-0.5c0-0.2,0-0.4,0-0.5c0-0.2-0.1-0.3-0.2-0.4s-0.2-0.1-0.4-0.2
				l-6.7-1c-0.2,0-0.3,0-0.4,0c-0.1,0-0.2,0.1-0.3,0.3c-0.1,0.1-0.2,0.3-0.2,0.5s-0.1,0.3-0.2,0.5L6,68.5l0.8-5.2l0.5,0.1
				c0,0.1,0,0.3,0,0.5c0,0.2,0,0.4,0,0.5c0,0.2,0.1,0.3,0.2,0.4c0.1,0.1,0.2,0.1,0.4,0.2l3.2,0.5l0-0.3c-0.3-0.4-0.6-0.8-1-1.4
				c-0.4-0.5-0.7-0.9-0.9-1.2c-0.4-0.4-0.6-0.7-0.8-0.9c-0.2-0.2-0.4-0.3-0.6-0.3c-0.1,0-0.2,0.1-0.2,0.2s-0.1,0.4-0.2,0.7l-0.5-0.1
				l0.6-4.1L8,58c0,0.5,0,0.9,0.1,1.3c0.1,0.3,0.2,0.7,0.5,1.1c0.4,0.5,0.7,1,0.9,1.3s0.6,0.8,1,1.4c0.6-0.3,1.3-0.8,2.1-1.3
				c0.8-0.5,1.7-1,2.5-1.5c0.2-0.1,0.4-0.3,0.6-0.4c0.2-0.2,0.4-0.4,0.5-0.6c0.1-0.1,0.1-0.2,0.2-0.4s0.1-0.3,0.1-0.4L17.1,58.7z"/>
		</g>
	</g>
	<g id="g154">
		<g>
			<defs>
				<rect id="SVGID_00000116921815116678623810000009197500028829498767_" x="-44.9" y="-119.1" width="481.9" height="680.3"/>
			</defs>
			<clipPath id="SVGID_00000006700864864737239970000017239930500811112889_">
				<use xlink:href="#SVGID_00000116921815116678623810000009197500028829498767_"  overflow="visible"/>
			</clipPath>
			<path id="path152" clip-path="url(#SVGID_00000006700864864737239970000017239930500811112889_)" fill="#9A0000" d="M20.7,49.1
				l-2,5l-0.5-0.2c0-0.1,0.1-0.3,0.2-0.5c0.1-0.2,0.1-0.4,0.1-0.5c0-0.2,0-0.3-0.1-0.4s-0.2-0.2-0.4-0.2l-6.3-2.5
				c-0.1-0.1-0.3-0.1-0.4-0.1c-0.1,0-0.3,0.1-0.4,0.2c-0.1,0.1-0.2,0.2-0.3,0.4c-0.1,0.2-0.2,0.3-0.3,0.5l-0.5-0.2l2-5l0.5,0.2
				c0,0.1-0.1,0.3-0.1,0.5s-0.1,0.4-0.1,0.5c0,0.2,0,0.3,0.1,0.4s0.2,0.2,0.4,0.2l6.3,2.5C19,50,19.2,50,19.3,50
				c0.1,0,0.3-0.1,0.4-0.2c0.1-0.1,0.2-0.2,0.3-0.4c0.1-0.2,0.2-0.3,0.3-0.5L20.7,49.1z"/>
		</g>
	</g>
	<g id="g164">
		<g>
			<defs>
				<rect id="SVGID_00000168101190211817563190000011477535210105255336_" x="-44.9" y="-119.1" width="481.9" height="680.3"/>
			</defs>
			<clipPath id="SVGID_00000161601917368090069520000017633824809710899858_">
				<use xlink:href="#SVGID_00000168101190211817563190000011477535210105255336_"  overflow="visible"/>
			</clipPath>
			<path id="path162" clip-path="url(#SVGID_00000161601917368090069520000017633824809710899858_)" fill="#9A0000" d="M22.3,29.6
				c-0.1,0.1-0.1,0.3-0.2,0.5c-0.1,0.2-0.2,0.4-0.1,0.7c0,0.2,0.1,0.4,0.3,0.6c0.2,0.2,0.5,0.5,1,0.9l5.6,4l-0.7,1l-9.5,0.5l3.7,2.6
				c0.5,0.3,0.8,0.5,1.1,0.7s0.5,0.1,0.7,0.1c0.1,0,0.3-0.2,0.5-0.3c0.2-0.2,0.4-0.3,0.5-0.4l0.4,0.3l-2.4,3.3l-0.4-0.3
				c0.1-0.2,0.2-0.3,0.3-0.5c0.1-0.2,0.1-0.4,0.1-0.6c0-0.2-0.1-0.4-0.3-0.6c-0.2-0.2-0.5-0.5-1-0.9l-3.7-2.7
				c-0.2-0.1-0.4-0.2-0.6-0.3s-0.4-0.1-0.6,0c-0.2,0-0.4,0.1-0.6,0.2s-0.4,0.3-0.6,0.5l-0.4-0.3l2.1-2.9l8.4-0.5l-3-2.1
				c-0.5-0.3-0.9-0.6-1.1-0.7s-0.5-0.1-0.7-0.1c-0.2,0-0.4,0.2-0.6,0.3S20,32.8,19.9,33l-0.4-0.3l2.4-3.3L22.3,29.6z"/>
		</g>
	</g>
	<g id="g174">
		<g>
			<defs>
				<rect id="SVGID_00000139252238912569200630000015687965973401496254_" x="-44.9" y="-119.1" width="481.9" height="680.3"/>
			</defs>
			<clipPath id="SVGID_00000129906692685190351060000011322563823232741786_">
				<use xlink:href="#SVGID_00000139252238912569200630000015687965973401496254_"  overflow="visible"/>
			</clipPath>
			<path id="path172" clip-path="url(#SVGID_00000129906692685190351060000011322563823232741786_)" fill="#9A0000" d="M38.9,21.7
				c-0.1,0.1-0.2,0.2-0.3,0.3s-0.2,0.2-0.2,0.3c-0.1,0.2-0.1,0.3-0.1,0.5c0,0.1,0.1,0.3,0.2,0.4l0.7,0.9c0.1,0.2,0.3,0.3,0.3,0.4
				s0.2,0.2,0.3,0.4c-0.2,0.5-0.5,1.1-1.1,1.9s-1.1,1.3-1.7,1.8c-0.5,0.4-1.1,0.8-1.7,1c-0.6,0.2-1.2,0.3-1.8,0.3
				c-0.6,0-1.2-0.2-1.8-0.5c-0.6-0.3-1.1-0.8-1.6-1.4c-0.5-0.6-0.8-1.2-1-1.9s-0.3-1.3-0.2-2c0.1-0.6,0.3-1.3,0.6-1.9
				s0.9-1.2,1.5-1.7c0.4-0.3,0.9-0.6,1.3-0.8c0.4-0.2,0.8-0.3,1.2-0.4l0.1-0.5l0.5-0.4l2.2,2.7l-0.5,0.4c-0.9-0.6-1.7-1-2.4-1.1
				s-1.3,0.1-1.9,0.5c-0.7,0.5-1,1.3-0.9,2.1s0.6,1.8,1.4,2.9c0.9,1.1,1.8,1.8,2.6,2.1s1.6,0.2,2.3-0.3c0.3-0.2,0.5-0.5,0.7-0.8
				s0.3-0.5,0.3-0.8l-1.2-1.5c-0.1-0.1-0.2-0.2-0.3-0.3s-0.3,0-0.5,0c-0.1,0-0.3,0.1-0.5,0.2s-0.3,0.2-0.5,0.2l-0.3-0.4l3.9-3.1
				L38.9,21.7z"/>
		</g>
	</g>
	<g id="g184">
		<g>
			<defs>
				<rect id="SVGID_00000029734128262121538960000009835264650640076163_" x="-44.9" y="-119.1" width="481.9" height="680.3"/>
			</defs>
			<clipPath id="SVGID_00000054981297211092806770000000052091579436859016_">
				<use xlink:href="#SVGID_00000029734128262121538960000009835264650640076163_"  overflow="visible"/>
			</clipPath>
			<path id="path182" clip-path="url(#SVGID_00000054981297211092806770000000052091579436859016_)" fill="#9A0000" d="M61.3,7.4
				c-0.1,0.1-0.3,0.1-0.5,0.2S60.4,7.8,60.2,8C60.1,8.2,60,8.4,60,8.7c0,0.3,0.1,0.7,0.2,1.3l0.9,3.4c0.3,1,0.1,1.9-0.4,2.7
				c-0.5,0.8-1.4,1.4-2.5,1.7c-1.3,0.4-2.4,0.3-3.3-0.1s-1.5-1.1-1.8-2.2L52,10.8c0-0.1-0.1-0.3-0.2-0.4c-0.1-0.1-0.2-0.2-0.4-0.2
				c-0.1,0-0.3,0-0.5,0c-0.2,0-0.3,0-0.4,0l-0.1-0.5l4.9-1.3l0.1,0.5C55.2,9,55.1,9.1,55,9.1c-0.1,0.1-0.3,0.1-0.4,0.2
				c-0.2,0.1-0.2,0.2-0.3,0.4c0,0.1,0,0.3,0,0.4l1.2,4.7c0.2,0.9,0.6,1.5,1.2,1.8s1.2,0.4,1.9,0.1c0.8-0.2,1.3-0.6,1.6-1.2
				s0.3-1.3,0.1-2.2l-0.8-3.1c-0.2-0.6-0.3-1-0.5-1.2s-0.3-0.4-0.5-0.5c-0.1-0.1-0.4-0.1-0.7-0.1c-0.3,0-0.5,0-0.6,0l-0.1-0.5l4-1.1
				L61.3,7.4z"/>
		</g>
	</g>
	<g id="g194">
		<g>
			<defs>
				<rect id="SVGID_00000124851720203639969110000005985175346310875545_" x="-44.9" y="-119.1" width="481.9" height="680.3"/>
			</defs>
			<clipPath id="SVGID_00000169554153407568317110000015359307385382401941_">
				<use xlink:href="#SVGID_00000124851720203639969110000005985175346310875545_"  overflow="visible"/>
			</clipPath>
			<path id="path192" clip-path="url(#SVGID_00000169554153407568317110000015359307385382401941_)" fill="#9A0000" d="M79.4,6.7
				c-0.1,0-0.3,0-0.5,0.1S78.5,6.9,78.3,7c-0.2,0.1-0.3,0.3-0.4,0.6s-0.1,0.7-0.1,1.3l-0.1,6.9l-1.2,0l-5.9-7.5l-0.1,4.5
				c0,0.6,0,1,0.1,1.3c0.1,0.3,0.2,0.5,0.3,0.6c0.1,0.1,0.3,0.2,0.6,0.3c0.3,0.1,0.5,0.1,0.6,0.2l0,0.5l-4.1-0.1l0-0.5
				c0.2,0,0.4,0,0.6-0.1c0.2-0.1,0.4-0.1,0.6-0.2c0.2-0.1,0.3-0.3,0.4-0.6c0.1-0.3,0.1-0.7,0.1-1.3l0.1-4.6c0-0.2,0-0.4-0.1-0.6
				s-0.2-0.4-0.3-0.5C69.2,7,69,6.9,68.8,6.8c-0.2-0.1-0.4-0.2-0.7-0.2l0-0.5l3.6,0.1l5.1,6.6l0-3.7c0-0.6,0-1-0.1-1.3
				c-0.1-0.3-0.2-0.5-0.3-0.6c-0.1-0.1-0.3-0.2-0.6-0.3s-0.5-0.1-0.6-0.2l0-0.5l4.1,0.1L79.4,6.7z"/>
		</g>
	</g>
	<g id="g204">
		<g>
			<defs>
				<rect id="SVGID_00000134210173061936162470000002517372237908270988_" x="-44.9" y="-119.1" width="481.9" height="680.3"/>
			</defs>
			<clipPath id="SVGID_00000155846952258208499820000003562909367547646850_">
				<use xlink:href="#SVGID_00000134210173061936162470000002517372237908270988_"  overflow="visible"/>
			</clipPath>
			<path id="path202" clip-path="url(#SVGID_00000155846952258208499820000003562909367547646850_)" fill="#9A0000" d="M89.8,18.2
				l-5.2-1.3l0.1-0.5c0.1,0,0.3,0,0.5,0.1c0.2,0,0.4,0.1,0.5,0c0.2,0,0.3-0.1,0.4-0.2c0.1-0.1,0.2-0.2,0.2-0.4l1.7-6.6
				c0-0.1,0-0.3,0-0.4c0-0.1-0.1-0.2-0.3-0.4c-0.1-0.1-0.2-0.2-0.4-0.3s-0.4-0.2-0.5-0.2L87,7.5l5.2,1.3l-0.1,0.5
				c-0.1,0-0.3-0.1-0.5-0.1c-0.2,0-0.4,0-0.5,0c-0.2,0-0.3,0.1-0.4,0.2c-0.1,0.1-0.2,0.2-0.2,0.4l-1.7,6.6c0,0.2,0,0.3,0,0.4
				s0.1,0.2,0.3,0.4c0.1,0.1,0.2,0.1,0.4,0.2c0.2,0.1,0.4,0.2,0.5,0.2L89.8,18.2z"/>
		</g>
	</g>
	<g id="g214">
		<g>
			<defs>
				<rect id="SVGID_00000086663985496721554740000016069586617003870110_" x="-44.9" y="-119.1" width="481.9" height="680.3"/>
			</defs>
			<clipPath id="SVGID_00000057869512330734268330000004962900371421038981_">
				<use xlink:href="#SVGID_00000086663985496721554740000016069586617003870110_"  overflow="visible"/>
			</clipPath>
			<path id="path212" clip-path="url(#SVGID_00000057869512330734268330000004962900371421038981_)" fill="#9A0000" d="M108.7,16.9
				c-0.1-0.1-0.3-0.1-0.4-0.1c-0.1,0-0.3,0-0.5,0c-0.2,0-0.4,0-0.6,0.1c-0.2,0.1-0.3,0.2-0.5,0.3c-0.3,0.2-0.7,0.5-1.2,0.9
				s-1.1,0.9-1.7,1.4c-0.6,0.5-1.2,1-1.9,1.5s-1.3,1.1-1.9,1.6L98.8,22c0.2-1.7,0.3-3.4,0.5-5.1c0.2-1.7,0.3-2.9,0.3-3.6
				c0-0.2,0-0.4,0-0.6c0-0.1-0.1-0.3-0.2-0.5c-0.1-0.1-0.2-0.3-0.3-0.4c-0.1-0.1-0.2-0.2-0.4-0.3l0.2-0.5l4.6,2.4l-0.2,0.5
				c-0.5-0.2-0.8-0.3-1-0.3c-0.2,0-0.3,0-0.3,0.1c0,0.1,0,0.1-0.1,0.1s0,0.1,0,0.2c-0.1,0.4-0.1,1.1-0.2,2.1c-0.1,1-0.2,2.5-0.4,4.5
				c0.9-0.8,1.7-1.5,2.4-2c0.6-0.5,1.2-1,1.7-1.5c0.2-0.2,0.4-0.4,0.6-0.6s0.3-0.3,0.4-0.5c0.1-0.1,0-0.3-0.1-0.5
				c-0.1-0.2-0.4-0.4-0.9-0.7l0.2-0.5l3.4,1.8L108.7,16.9z"/>
		</g>
	</g>
	<g id="g224">
		<g>
			<defs>
				<rect id="SVGID_00000126307901202437686480000004862574068855563651_" x="-44.9" y="-119.1" width="481.9" height="680.3"/>
			</defs>
			<clipPath id="SVGID_00000015338928057695757230000009889260539880070557_">
				<use xlink:href="#SVGID_00000126307901202437686480000004862574068855563651_"  overflow="visible"/>
			</clipPath>
			<path id="path222" clip-path="url(#SVGID_00000015338928057695757230000009889260539880070557_)" fill="#9A0000" d="M119.2,28
				l-0.4-0.4c0.2-0.4,0.2-0.8,0.3-1.3c0-0.5-0.1-0.9-0.2-1.1c-0.1-0.1-0.2-0.2-0.4-0.4c-0.2-0.2-0.3-0.3-0.4-0.4l-1-0.9l-2.5,2.7
				l0.7,0.7c0.2,0.2,0.4,0.3,0.6,0.4c0.2,0.1,0.4,0.1,0.6,0.1c0.1,0,0.3-0.1,0.6-0.2c0.2-0.1,0.5-0.2,0.6-0.4l0.4,0.4l-2.7,3
				l-0.4-0.4c0.1-0.2,0.2-0.4,0.3-0.7c0.1-0.3,0.2-0.5,0.2-0.6c0-0.2-0.1-0.4-0.2-0.6s-0.3-0.4-0.4-0.5l-0.7-0.7l-1.9,2
				c-0.2,0.2-0.3,0.4-0.4,0.5s-0.1,0.3-0.1,0.5c0,0.1,0.1,0.3,0.2,0.4c0.1,0.1,0.3,0.3,0.6,0.6c0.1,0.1,0.3,0.2,0.4,0.4
				c0.2,0.1,0.3,0.3,0.5,0.4c0.2,0.1,0.3,0.2,0.5,0.3s0.3,0.1,0.4,0.1c0.3,0,0.7-0.1,1.2-0.2c0.5-0.1,0.9-0.3,1.1-0.4l0.4,0.3
				l-2.2,2.1l-6.6-6.1l0.4-0.4c0.1,0.1,0.2,0.2,0.4,0.3s0.3,0.2,0.4,0.2c0.2,0.1,0.3,0.1,0.4,0s0.2-0.1,0.3-0.2l4.6-5
				c0.1-0.1,0.2-0.2,0.2-0.4s0-0.3-0.1-0.5c-0.1-0.1-0.1-0.3-0.3-0.5s-0.2-0.3-0.3-0.4l0.4-0.4l6.3,5.7L119.2,28z"/>
		</g>
	</g>
	<g id="g234">
		<g>
			<defs>
				<rect id="SVGID_00000080195893026511647320000011180395098178369948_" x="-44.9" y="-119.1" width="481.9" height="680.3"/>
			</defs>
			<clipPath id="SVGID_00000174560233107557528700000007108915059599969212_">
				<use xlink:href="#SVGID_00000080195893026511647320000011180395098178369948_"  overflow="visible"/>
			</clipPath>
			<path id="path232" clip-path="url(#SVGID_00000174560233107557528700000007108915059599969212_)" fill="#9A0000" d="M127.7,39.2
				c0.5-0.3,0.8-0.8,0.9-1.2s-0.1-1-0.5-1.5l-0.3-0.5l-3.4,2.2l0.3,0.4c0.4,0.6,0.8,0.9,1.3,1S127,39.6,127.7,39.2 M124.1,46.9
				l-2-3.1c0.5-1.1,0.8-1.9,1.1-2.6c0.3-0.7,0.5-1.5,0.8-2.4l-0.2-0.3l-2.4,1.6c-0.1,0.1-0.2,0.2-0.3,0.3s-0.1,0.3-0.1,0.5
				c0,0.1,0.1,0.2,0.1,0.4c0.1,0.2,0.1,0.3,0.2,0.4l-0.4,0.3l-2.8-4.3l0.4-0.3c0.1,0.1,0.2,0.2,0.3,0.4s0.2,0.3,0.3,0.3
				c0.2,0.1,0.3,0.2,0.4,0.1s0.3-0.1,0.4-0.2l5.7-3.7c0.1-0.1,0.2-0.2,0.3-0.3s0.1-0.2,0-0.5c0-0.2-0.1-0.3-0.2-0.5
				c-0.1-0.2-0.1-0.3-0.2-0.4l0.4-0.3l2.9,4.5c0.6,1,1,1.9,1,2.6c0,0.7-0.3,1.3-0.9,1.7c-0.6,0.4-1.1,0.5-1.7,0.4
				c-0.6-0.1-1.1-0.4-1.8-1c-0.2,0.5-0.4,1-0.6,1.7s-0.4,1.3-0.7,1.9c-0.1,0.2-0.2,0.5-0.2,0.8s-0.1,0.6-0.1,0.8
				c0,0.1,0.1,0.2,0.2,0.4s0.1,0.2,0.2,0.3L124.1,46.9z"/>
		</g>
	</g>
	<g id="g244">
		<g>
			<defs>
				<rect id="SVGID_00000111162667296373941470000003254952371489282457_" x="-44.9" y="-119.1" width="481.9" height="680.3"/>
			</defs>
			<clipPath id="SVGID_00000043459184753720997510000016412171297936829577_">
				<use xlink:href="#SVGID_00000111162667296373941470000003254952371489282457_"  overflow="visible"/>
			</clipPath>
			<path id="path242" clip-path="url(#SVGID_00000043459184753720997510000016412171297936829577_)" fill="#9A0000" d="M126.8,54.8
				c-0.2-0.6-0.3-1.1-0.3-1.6c0-0.5,0-1,0.1-1.4l-0.6-0.3l-0.2-0.5l3.3-1.2l0.2,0.6c-0.3,0.2-0.5,0.5-0.8,0.8
				c-0.3,0.3-0.5,0.6-0.7,1c-0.2,0.4-0.3,0.7-0.4,1.1s0,0.8,0.1,1.2c0.2,0.6,0.5,1,0.9,1.2s0.8,0.2,1.2,0.1c0.4-0.1,0.6-0.3,0.8-0.7
				c0.1-0.3,0.2-0.8,0.2-1.4c0-0.4,0-0.8,0-1.1s0-0.7,0-1c0-0.7,0.2-1.3,0.6-1.7c0.4-0.5,0.8-0.8,1.4-1c0.4-0.1,0.7-0.2,1.1-0.1
				c0.4,0,0.8,0.2,1.1,0.4c0.3,0.2,0.7,0.5,1,0.9c0.3,0.4,0.5,0.8,0.7,1.4c0.2,0.5,0.3,1,0.3,1.5c0,0.5,0,0.9-0.1,1.2l0.5,0.3
				l0.2,0.6l-3.1,1.1l-0.2-0.6c0.3-0.2,0.6-0.5,0.9-0.8c0.3-0.3,0.5-0.6,0.7-0.8c0.2-0.3,0.3-0.6,0.4-0.9c0.1-0.3,0-0.7-0.1-1
				c-0.1-0.5-0.4-0.8-0.8-1s-0.7-0.2-1.1-0.1c-0.4,0.1-0.6,0.3-0.8,0.7s-0.2,0.8-0.2,1.4c0,0.3,0,0.7,0,1.1c0,0.4,0,0.7,0,1
				c0,0.7-0.2,1.3-0.5,1.8c-0.3,0.5-0.8,0.8-1.4,1c-0.4,0.1-0.8,0.2-1.2,0.1c-0.4-0.1-0.8-0.2-1.2-0.4c-0.4-0.2-0.7-0.6-1-1
				C127.3,55.9,127,55.4,126.8,54.8"/>
		</g>
	</g>
	<g id="g254">
		<g>
			<defs>
				<rect id="SVGID_00000114777497137592260090000011910703504472579975_" x="-44.9" y="-119.1" width="481.9" height="680.3"/>
			</defs>
			<clipPath id="SVGID_00000169528519173105569880000003751689912906049193_">
				<use xlink:href="#SVGID_00000114777497137592260090000011910703504472579975_"  overflow="visible"/>
			</clipPath>
			<path id="path252" clip-path="url(#SVGID_00000169528519173105569880000003751689912906049193_)" fill="#9A0000" d="M130,69.6
				l-0.6-5.3l0.5-0.1c0,0.1,0.1,0.3,0.1,0.5c0,0.2,0.1,0.4,0.1,0.5c0.1,0.2,0.2,0.3,0.3,0.3c0.1,0.1,0.3,0.1,0.4,0.1l6.8-0.7
				c0.1,0,0.3-0.1,0.4-0.1s0.2-0.2,0.2-0.4c0-0.1,0.1-0.3,0.1-0.5c0-0.2,0-0.4,0-0.5l0.5,0l0.6,5.3l-0.5,0.1c0-0.1-0.1-0.3-0.1-0.5
				s-0.1-0.4-0.2-0.5c-0.1-0.2-0.2-0.3-0.3-0.3c-0.1-0.1-0.3-0.1-0.4,0l-6.8,0.7c-0.2,0-0.3,0.1-0.4,0.1c-0.1,0.1-0.2,0.2-0.2,0.4
				c0,0.1-0.1,0.3-0.1,0.5s0,0.4,0,0.6L130,69.6z"/>
		</g>
	</g>
	<g id="g264">
		<g>
			<defs>
				<rect id="SVGID_00000157292797948785005360000011902270509352020410_" x="-44.9" y="-119.1" width="481.9" height="680.3"/>
			</defs>
			<clipPath id="SVGID_00000072991605382646674270000015162816558820462209_">
				<use xlink:href="#SVGID_00000157292797948785005360000011902270509352020410_"  overflow="visible"/>
			</clipPath>
			<path id="path262" clip-path="url(#SVGID_00000072991605382646674270000015162816558820462209_)" fill="#9A0000" d="M135.9,85.1
				l0.1-0.5c0.4-0.1,0.9-0.3,1.4-0.5s0.8-0.5,0.9-0.8c0-0.1,0.1-0.3,0.1-0.5c0-0.2,0.1-0.4,0.1-0.5l0-0.3l-7.5-0.9
				c-0.2,0-0.3,0-0.4,0c-0.1,0-0.2,0.2-0.3,0.3c-0.1,0.1-0.1,0.3-0.2,0.5c-0.1,0.2-0.1,0.4-0.2,0.6l-0.5-0.1l0.6-5.3l0.5,0.1
				c0,0.1,0,0.3,0,0.6s0,0.4,0,0.5c0.1,0.2,0.1,0.3,0.2,0.4c0.1,0.1,0.2,0.1,0.4,0.1l7.5,0.9l0-0.3c0-0.2,0-0.3,0-0.6
				c0-0.2,0-0.4,0-0.5c0-0.3-0.2-0.6-0.6-0.9s-0.8-0.6-1.2-0.8l0.1-0.5l2.7,0.3l-1.1,9.2L135.9,85.1z"/>
		</g>
	</g>
	<g id="g274">
		<g>
			<defs>
				<rect id="SVGID_00000116953458258093243050000013095715693007016868_" x="-44.9" y="-119.1" width="481.9" height="680.3"/>
			</defs>
			<clipPath id="SVGID_00000046322784080115973840000003770059668801825177_">
				<use xlink:href="#SVGID_00000116953458258093243050000013095715693007016868_"  overflow="visible"/>
			</clipPath>
			<path id="path272" clip-path="url(#SVGID_00000046322784080115973840000003770059668801825177_)" fill="#9A0000" d="M132.7,101.7
				c0-0.2,0.1-0.3,0.1-0.4s0-0.3,0-0.4c0-0.2-0.1-0.4-0.2-0.6c-0.1-0.2-0.2-0.4-0.4-0.6c-0.3-0.4-0.6-0.9-1-1.4
				c-0.4-0.5-0.8-1-1.2-1.6c-0.3-0.4-0.5-0.6-0.7-0.7c-0.2-0.1-0.5-0.3-1-0.5l-1.3-0.5c-0.2-0.1-0.3-0.1-0.4-0.1
				c-0.1,0-0.3,0.1-0.4,0.2c-0.1,0.1-0.2,0.2-0.3,0.4c-0.1,0.2-0.2,0.4-0.3,0.5l-0.5-0.2l1.9-5l0.5,0.2c0,0.1-0.1,0.3-0.2,0.5
				s-0.1,0.4-0.1,0.5c0,0.2,0.1,0.3,0.2,0.4s0.2,0.2,0.4,0.2l1.6,0.6c0.1,0.1,0.3,0.1,0.4,0.1c0.1,0,0.2,0.1,0.3,0.1
				c0.1,0,0.2,0,0.4,0s0.4-0.1,0.6-0.1c0.7-0.1,1.4-0.2,2-0.3c0.6-0.1,1.2-0.2,1.8-0.3c0.3-0.1,0.5-0.1,0.7-0.2
				c0.2-0.1,0.4-0.2,0.5-0.3c0.1-0.1,0.2-0.2,0.3-0.4c0.1-0.2,0.2-0.3,0.2-0.4l0.5,0.2l-2,5.1l-0.5-0.2c0.2-0.5,0.3-0.8,0.3-1
				s0-0.3-0.1-0.3c-0.1,0-0.1,0-0.3,0c-0.2,0-0.4,0-0.8,0.1c-0.3,0-0.8,0.1-1.4,0.2c-0.6,0.1-1.3,0.2-2.1,0.3c1,1.3,1.6,2.2,2,2.7
				s0.6,0.8,0.8,0.8c0.1,0.1,0.3,0,0.4-0.1s0.3-0.4,0.5-0.8l0.5,0.2l-1.3,3.3L132.7,101.7z"/>
		</g>
	</g>
	<g id="g284">
		<g>
			<defs>
				<rect id="SVGID_00000006669859237179374150000003239803194131544472_" x="-44.9" y="-119.1" width="481.9" height="680.3"/>
			</defs>
			<clipPath id="SVGID_00000026874192397524554450000011768379362121648276_">
				<use xlink:href="#SVGID_00000006669859237179374150000003239803194131544472_"  overflow="visible"/>
			</clipPath>
			<path id="path282" clip-path="url(#SVGID_00000026874192397524554450000011768379362121648276_)" fill="#9A0000" d="M103.6,98
				c-1.6-3.8-3.5-7.4-5.6-10.5c-2.2-3.3-4.5-6.2-7-8.5c-2.7-2.5-5.5-4.5-8.4-5.9c-1.9-0.9-3.9-1.5-5.9-1.9V69c0-2.2-1.8-3.9-3.9-3.9
				s-3.9,1.8-3.9,3.9v2.3c-2,0.3-4,1-5.9,1.9c-2.9,1.3-5.8,3.3-8.4,5.9c-2.5,2.4-4.8,5.2-7,8.5c-2,3.1-3.9,6.7-5.5,10.5
				c-0.8,1.9,0.1,4.1,2,5c1.9,0.8,4.1-0.1,5-2c3-6.9,6.7-12.7,10.8-16.6c2.9-2.8,6-4.6,9.1-5.5v6.2c0,2.1-1.6,2.9-2.3,3.4
				c-0.2,0.1-0.7,0.4-1,0.6c-1.4,0.9-3.1,2.4-4.7,4.4c-2.8,3.6-5,8.5-6.2,13.9c-0.4,2,0.8,4.1,2.9,4.5c2,0.4,4.1-0.8,4.5-2.9
				c0.9-4.2,2.6-8.1,4.7-10.8c1.1-1.4,3.3-3.7,5.9-3.7s4.8,2.3,5.9,3.7c2.1,2.7,3.8,6.6,4.7,10.8c0.4,2,2.5,3.3,4.5,2.9
				c2-0.4,3.3-2.5,2.9-4.5c-1.2-5.3-3.3-10.2-6.2-13.9c-1.6-2-3.2-3.5-4.7-4.4c-0.2-0.2-0.7-0.4-1-0.6c-0.7-0.4-2.3-1.3-2.3-3.4V79
				c3.1,0.8,6.2,2.7,9.1,5.5c4.1,3.9,7.8,9.6,10.8,16.6c0.8,1.9,3.1,2.8,5,2C103.6,102.2,104.4,100,103.6,98 M76.2,35.2v0.1v22.4v2
				c0,1.3,0.9,3.2,2.9,3.6c4.5,1,9.7,3.6,14.4,7.5c4.6,3.8,8.9,8.8,12.8,14.8c1.1,1.8,3.5,2.2,5.2,1.1c1.1-0.7,1.7-1.9,1.7-3.2
				c0-0.7-0.2-1.4-0.6-2.1c-4.3-6.7-9.2-12.2-14.4-16.5c-4.6-3.8-9.4-6.5-14.4-8.1v-8.7c7.1,2,14.5,6,20.9,11.4
				c1.6,1.4,4,1.2,5.3-0.4c1.4-1.6,1.2-4-0.4-5.3c-4.1-3.5-8.7-6.6-13.4-9c-4.2-2.1-8.3-3.6-12.4-4.5v-5.1c0-2.2-1.8-3.9-3.9-3.9
				C77.9,31.3,76.2,33.1,76.2,35.2 M65.6,31.3c-2.2,0-3.9,1.8-3.9,3.9v5.1c-4.1,0.9-8.2,2.5-12.4,4.5c-4.7,2.4-9.3,5.5-13.4,9
				c-1.6,1.4-1.8,3.8-0.4,5.3s3.8,1.8,5.3,0.4c6.4-5.5,13.8-9.5,20.9-11.4v8.7c-4.9,1.6-9.8,4.3-14.4,8.1c-5.2,4.3-10,9.8-14.4,16.5
				c-0.4,0.6-0.6,1.3-0.6,2.1c0,1.2,0.6,2.4,1.7,3.2c1.8,1.1,4.1,0.6,5.2-1.1c3.9-6,8.2-11,12.8-14.8c4.7-3.9,9.9-6.5,14.4-7.5
				c2-0.4,2.9-2.3,2.9-3.6v-2V35.4v-0.1C69.5,33.1,67.7,31.3,65.6,31.3 M122.4,72.8c0,27.4-22.2,49.5-49.6,49.5
				s-49.5-22.2-49.5-49.6c0-27.4,22.2-49.5,49.5-49.5C100.2,23.3,122.4,45.5,122.4,72.8"/>
		</g>
	</g>
</g>
</svg>
